  0
SECTION
  2
BLOCKS
  0
ENDSEC
  0
SECTION
  2
ENTITIES
  0
LINE
  8
0
 10
-606
 20
472
 11
-605.563
 21
476.158
  0
LINE
  8
0
 10
-605.563
 20
476.158
 11
-604.271
 21
480.135
  0
LINE
  8
0
 10
-604.271
 20
480.135
 11
-602.18
 21
483.756
  0
LINE
  8
0
 10
-602.18
 20
483.756
 11
-599.383
 21
486.863
  0
LINE
  8
0
 10
-599.383
 20
486.863
 11
-596
 21
489.32
  0
LINE
  8
0
 10
-596
 20
489.32
 11
-592.18
 21
491.021
  0
LINE
  8
0
 10
-592.18
 20
491.021
 11
-588.091
 21
491.89
  0
LINE
  8
0
 10
-588.091
 20
491.89
 11
-343.909
 21
491.89
  0
LINE
  8
0
 10
-343.909
 20
491.89
 11
-339.82
 21
491.021
  0
LINE
  8
0
 10
-339.82
 20
491.021
 11
-336
 21
489.32
  0
LINE
  8
0
 10
-336
 20
489.32
 11
-332.617
 21
486.863
  0
LINE
  8
0
 10
-332.617
 20
486.863
 11
-329.82
 21
483.756
  0
LINE
  8
0
 10
-329.82
 20
483.756
 11
-327.729
 21
480.135
  0
LINE
  8
0
 10
-327.729
 20
480.135
 11
-326.437
 21
476.158
  0
LINE
  8
0
 10
-326.437
 20
476.158
 11
-326
 21
472
  0
LINE
  8
0
 10
-326
 20
472
 11
-326
 21
442
  0
LINE
  8
0
 10
-326
 20
442
 11
-252
 21
442
  0
LINE
  8
0
 10
-252
 20
442
 11
-252
 21
447
  0
LINE
  8
0
 10
-252
 20
447
 11
-246
 21
447
  0
LINE
  8
0
 10
-246
 20
447
 11
-246
 21
467
  0
LINE
  8
0
 10
-246
 20
467
 11
-252
 21
467
  0
LINE
  8
0
 10
-252
 20
467
 11
-252
 21
487
  0
LINE
  8
0
 10
-252
 20
487
 11
-246
 21
487
  0
LINE
  8
0
 10
-246
 20
487
 11
-246
 21
507
  0
LINE
  8
0
 10
-246
 20
507
 11
-252
 21
507
  0
LINE
  8
0
 10
-252
 20
507
 11
-252
 21
515
  0
LINE
  8
0
 10
-252
 20
515
 11
-268.5
 21
515
  0
LINE
  8
0
 10
-268.5
 20
515
 11
-268.5
 21
513.5
  0
LINE
  8
0
 10
-268.5
 20
513.5
 11
-272
 21
513.5
  0
LINE
  8
0
 10
-272
 20
513.5
 11
-272
 21
515
  0
LINE
  8
0
 10
-272
 20
515
 11
-278.5
 21
515
  0
LINE
  8
0
 10
-278.5
 20
515
 11
-278.5
 21
519
  0
LINE
  8
0
 10
-278.5
 20
519
 11
-272
 21
519
  0
LINE
  8
0
 10
-272
 20
519
 11
-272
 21
520.5
  0
LINE
  8
0
 10
-272
 20
520.5
 11
-268.5
 21
520.5
  0
LINE
  8
0
 10
-268.5
 20
520.5
 11
-268.5
 21
519
  0
LINE
  8
0
 10
-268.5
 20
519
 11
-252
 21
519
  0
LINE
  8
0
 10
-252
 20
519
 11
-252
 21
527
  0
LINE
  8
0
 10
-252
 20
527
 11
-246
 21
527
  0
LINE
  8
0
 10
-246
 20
527
 11
-246
 21
547
  0
LINE
  8
0
 10
-246
 20
547
 11
-252
 21
547
  0
LINE
  8
0
 10
-252
 20
547
 11
-252
 21
567
  0
LINE
  8
0
 10
-252
 20
567
 11
-246
 21
567
  0
LINE
  8
0
 10
-246
 20
567
 11
-246
 21
576
  0
LINE
  8
0
 10
-246
 20
576
 11
-256
 21
576
  0
LINE
  8
0
 10
-256
 20
576
 11
-256
 21
582
  0
LINE
  8
0
 10
-256
 20
582
 11
-246
 21
582
  0
LINE
  8
0
 10
-246
 20
582
 11
-246
 21
587
  0
LINE
  8
0
 10
-246
 20
587
 11
-252
 21
587
  0
LINE
  8
0
 10
-252
 20
587
 11
-252
 21
592
  0
LINE
  8
0
 10
-252
 20
592
 11
-680
 21
592
  0
LINE
  8
0
 10
-680
 20
592
 11
-680
 21
587
  0
LINE
  8
0
 10
-680
 20
587
 11
-686
 21
587
  0
LINE
  8
0
 10
-686
 20
587
 11
-686
 21
582
  0
LINE
  8
0
 10
-686
 20
582
 11
-676
 21
582
  0
LINE
  8
0
 10
-676
 20
582
 11
-676
 21
576
  0
LINE
  8
0
 10
-676
 20
576
 11
-686
 21
576
  0
LINE
  8
0
 10
-686
 20
576
 11
-686
 21
567
  0
LINE
  8
0
 10
-686
 20
567
 11
-680
 21
567
  0
LINE
  8
0
 10
-680
 20
567
 11
-680
 21
547
  0
LINE
  8
0
 10
-680
 20
547
 11
-686
 21
547
  0
LINE
  8
0
 10
-686
 20
547
 11
-686
 21
527
  0
LINE
  8
0
 10
-686
 20
527
 11
-680
 21
527
  0
LINE
  8
0
 10
-680
 20
527
 11
-680
 21
519
  0
LINE
  8
0
 10
-680
 20
519
 11
-663.5
 21
519
  0
LINE
  8
0
 10
-663.5
 20
519
 11
-663.5
 21
520.5
  0
LINE
  8
0
 10
-663.5
 20
520.5
 11
-660
 21
520.5
  0
LINE
  8
0
 10
-660
 20
520.5
 11
-660
 21
519
  0
LINE
  8
0
 10
-660
 20
519
 11
-653.5
 21
519
  0
LINE
  8
0
 10
-653.5
 20
519
 11
-653.5
 21
515
  0
LINE
  8
0
 10
-653.5
 20
515
 11
-660
 21
515
  0
LINE
  8
0
 10
-660
 20
515
 11
-660
 21
513.5
  0
LINE
  8
0
 10
-660
 20
513.5
 11
-663.5
 21
513.5
  0
LINE
  8
0
 10
-663.5
 20
513.5
 11
-663.5
 21
515
  0
LINE
  8
0
 10
-663.5
 20
515
 11
-680
 21
515
  0
LINE
  8
0
 10
-680
 20
515
 11
-680
 21
507
  0
LINE
  8
0
 10
-680
 20
507
 11
-686
 21
507
  0
LINE
  8
0
 10
-686
 20
507
 11
-686
 21
487
  0
LINE
  8
0
 10
-686
 20
487
 11
-680
 21
487
  0
LINE
  8
0
 10
-680
 20
487
 11
-680
 21
467
  0
LINE
  8
0
 10
-680
 20
467
 11
-686
 21
467
  0
LINE
  8
0
 10
-686
 20
467
 11
-686
 21
447
  0
LINE
  8
0
 10
-686
 20
447
 11
-680
 21
447
  0
LINE
  8
0
 10
-680
 20
447
 11
-680
 21
442
  0
LINE
  8
0
 10
-680
 20
442
 11
-606
 21
442
  0
LINE
  8
0
 10
-606
 20
442
 11
-606
 21
472
  0
LINE
  8
0
 10
-656
 20
576
 11
-656
 21
582
  0
LINE
  8
0
 10
-656
 20
582
 11
-636
 21
582
  0
LINE
  8
0
 10
-636
 20
582
 11
-636
 21
576
  0
LINE
  8
0
 10
-636
 20
576
 11
-656
 21
576
  0
LINE
  8
0
 10
-616
 20
576
 11
-616
 21
582
  0
LINE
  8
0
 10
-616
 20
582
 11
-596
 21
582
  0
LINE
  8
0
 10
-596
 20
582
 11
-596
 21
576
  0
LINE
  8
0
 10
-596
 20
576
 11
-616
 21
576
  0
LINE
  8
0
 10
-576
 20
576
 11
-576
 21
582
  0
LINE
  8
0
 10
-576
 20
582
 11
-556
 21
582
  0
LINE
  8
0
 10
-556
 20
582
 11
-556
 21
576
  0
LINE
  8
0
 10
-556
 20
576
 11
-576
 21
576
  0
LINE
  8
0
 10
-296
 20
576
 11
-296
 21
582
  0
LINE
  8
0
 10
-296
 20
582
 11
-276
 21
582
  0
LINE
  8
0
 10
-276
 20
582
 11
-276
 21
576
  0
LINE
  8
0
 10
-276
 20
576
 11
-296
 21
576
  0
LINE
  8
0
 10
-336
 20
576
 11
-336
 21
582
  0
LINE
  8
0
 10
-336
 20
582
 11
-316
 21
582
  0
LINE
  8
0
 10
-316
 20
582
 11
-316
 21
576
  0
LINE
  8
0
 10
-316
 20
576
 11
-336
 21
576
  0
LINE
  8
0
 10
-376
 20
576
 11
-376
 21
582
  0
LINE
  8
0
 10
-376
 20
582
 11
-356
 21
582
  0
LINE
  8
0
 10
-356
 20
582
 11
-356
 21
576
  0
LINE
  8
0
 10
-356
 20
576
 11
-376
 21
576
  0
LINE
  8
0
 10
-416
 20
576
 11
-416
 21
582
  0
LINE
  8
0
 10
-416
 20
582
 11
-396
 21
582
  0
LINE
  8
0
 10
-396
 20
582
 11
-396
 21
576
  0
LINE
  8
0
 10
-396
 20
576
 11
-416
 21
576
  0
LINE
  8
0
 10
-456
 20
576
 11
-456
 21
582
  0
LINE
  8
0
 10
-456
 20
582
 11
-436
 21
582
  0
LINE
  8
0
 10
-436
 20
582
 11
-436
 21
576
  0
LINE
  8
0
 10
-436
 20
576
 11
-456
 21
576
  0
LINE
  8
0
 10
-496
 20
576
 11
-496
 21
582
  0
LINE
  8
0
 10
-496
 20
582
 11
-476
 21
582
  0
LINE
  8
0
 10
-476
 20
582
 11
-476
 21
576
  0
LINE
  8
0
 10
-476
 20
576
 11
-496
 21
576
  0
LINE
  8
0
 10
-536
 20
576
 11
-536
 21
582
  0
LINE
  8
0
 10
-536
 20
582
 11
-516
 21
582
  0
LINE
  8
0
 10
-516
 20
582
 11
-516
 21
576
  0
LINE
  8
0
 10
-516
 20
576
 11
-536
 21
576
  0
LINE
  8
0
 10
-467.802
 20
578.132
 11
-467.802
 21
579.868
  0
LINE
  8
0
 10
-467.802
 20
579.868
 11
-466.445
 21
580.95
  0
LINE
  8
0
 10
-466.445
 20
580.95
 11
-464.753
 21
580.564
  0
LINE
  8
0
 10
-464.753
 20
580.564
 11
-464
 21
579
  0
LINE
  8
0
 10
-464
 20
579
 11
-464.753
 21
577.436
  0
LINE
  8
0
 10
-464.753
 20
577.436
 11
-466.445
 21
577.05
  0
LINE
  8
0
 10
-466.445
 20
577.05
 11
-467.802
 21
578.132
  0
LINE
  8
0
 10
116.18
 20
344.979
 11
120
 21
346.68
  0
LINE
  8
0
 10
120
 20
346.68
 11
123.383
 21
349.137
  0
LINE
  8
0
 10
123.383
 20
349.137
 11
126.18
 21
352.244
  0
LINE
  8
0
 10
126.18
 20
352.244
 11
128.271
 21
355.865
  0
LINE
  8
0
 10
128.271
 20
355.865
 11
129.563
 21
359.842
  0
LINE
  8
0
 10
129.563
 20
359.842
 11
130
 21
364
  0
LINE
  8
0
 10
130
 20
364
 11
214
 21
364
  0
LINE
  8
0
 10
214
 20
364
 11
214
 21
369
  0
LINE
  8
0
 10
214
 20
369
 11
220
 21
369
  0
LINE
  8
0
 10
220
 20
369
 11
220
 21
389
  0
LINE
  8
0
 10
220
 20
389
 11
214
 21
389
  0
LINE
  8
0
 10
214
 20
389
 11
214
 21
409
  0
LINE
  8
0
 10
214
 20
409
 11
220
 21
409
  0
LINE
  8
0
 10
220
 20
409
 11
220
 21
429
  0
LINE
  8
0
 10
220
 20
429
 11
214
 21
429
  0
LINE
  8
0
 10
214
 20
429
 11
214
 21
437
  0
LINE
  8
0
 10
214
 20
437
 11
197.5
 21
437
  0
LINE
  8
0
 10
197.5
 20
437
 11
197.5
 21
435.5
  0
LINE
  8
0
 10
197.5
 20
435.5
 11
194
 21
435.5
  0
LINE
  8
0
 10
194
 20
435.5
 11
194
 21
437
  0
LINE
  8
0
 10
194
 20
437
 11
187.5
 21
437
  0
LINE
  8
0
 10
187.5
 20
437
 11
187.5
 21
441
  0
LINE
  8
0
 10
187.5
 20
441
 11
194
 21
441
  0
LINE
  8
0
 10
194
 20
441
 11
194
 21
442.5
  0
LINE
  8
0
 10
194
 20
442.5
 11
197.5
 21
442.5
  0
LINE
  8
0
 10
197.5
 20
442.5
 11
197.5
 21
441
  0
LINE
  8
0
 10
197.5
 20
441
 11
214
 21
441
  0
LINE
  8
0
 10
214
 20
441
 11
214
 21
449
  0
LINE
  8
0
 10
214
 20
449
 11
220
 21
449
  0
LINE
  8
0
 10
220
 20
449
 11
220
 21
469
  0
LINE
  8
0
 10
220
 20
469
 11
214
 21
469
  0
LINE
  8
0
 10
214
 20
469
 11
214
 21
489
  0
LINE
  8
0
 10
214
 20
489
 11
220
 21
489
  0
LINE
  8
0
 10
220
 20
489
 11
220
 21
498
  0
LINE
  8
0
 10
220
 20
498
 11
210
 21
498
  0
LINE
  8
0
 10
210
 20
498
 11
210
 21
504
  0
LINE
  8
0
 10
210
 20
504
 11
220
 21
504
  0
LINE
  8
0
 10
220
 20
504
 11
220
 21
509
  0
LINE
  8
0
 10
220
 20
509
 11
214
 21
509
  0
LINE
  8
0
 10
214
 20
509
 11
214
 21
514
  0
LINE
  8
0
 10
214
 20
514
 11
-214
 21
514
  0
LINE
  8
0
 10
-214
 20
514
 11
-214
 21
509
  0
LINE
  8
0
 10
-214
 20
509
 11
-220
 21
509
  0
LINE
  8
0
 10
-220
 20
509
 11
-220
 21
504
  0
LINE
  8
0
 10
-220
 20
504
 11
-210
 21
504
  0
LINE
  8
0
 10
-210
 20
504
 11
-210
 21
498
  0
LINE
  8
0
 10
-210
 20
498
 11
-220
 21
498
  0
LINE
  8
0
 10
-220
 20
498
 11
-220
 21
489
  0
LINE
  8
0
 10
-220
 20
489
 11
-214
 21
489
  0
LINE
  8
0
 10
-214
 20
489
 11
-214
 21
469
  0
LINE
  8
0
 10
-214
 20
469
 11
-220
 21
469
  0
LINE
  8
0
 10
-220
 20
469
 11
-220
 21
449
  0
LINE
  8
0
 10
-220
 20
449
 11
-214
 21
449
  0
LINE
  8
0
 10
-214
 20
449
 11
-214
 21
441
  0
LINE
  8
0
 10
-214
 20
441
 11
-197.5
 21
441
  0
LINE
  8
0
 10
-197.5
 20
441
 11
-197.5
 21
442.5
  0
LINE
  8
0
 10
-197.5
 20
442.5
 11
-194
 21
442.5
  0
LINE
  8
0
 10
-194
 20
442.5
 11
-194
 21
441
  0
LINE
  8
0
 10
-194
 20
441
 11
-187.5
 21
441
  0
LINE
  8
0
 10
-187.5
 20
441
 11
-187.5
 21
437
  0
LINE
  8
0
 10
-187.5
 20
437
 11
-194
 21
437
  0
LINE
  8
0
 10
-194
 20
437
 11
-194
 21
435.5
  0
LINE
  8
0
 10
-194
 20
435.5
 11
-197.5
 21
435.5
  0
LINE
  8
0
 10
-197.5
 20
435.5
 11
-197.5
 21
437
  0
LINE
  8
0
 10
-197.5
 20
437
 11
-214
 21
437
  0
LINE
  8
0
 10
-214
 20
437
 11
-214
 21
429
  0
LINE
  8
0
 10
-214
 20
429
 11
-220
 21
429
  0
LINE
  8
0
 10
-220
 20
429
 11
-220
 21
409
  0
LINE
  8
0
 10
-220
 20
409
 11
-214
 21
409
  0
LINE
  8
0
 10
-214
 20
409
 11
-214
 21
389
  0
LINE
  8
0
 10
-214
 20
389
 11
-220
 21
389
  0
LINE
  8
0
 10
-220
 20
389
 11
-220
 21
369
  0
LINE
  8
0
 10
-220
 20
369
 11
-214
 21
369
  0
LINE
  8
0
 10
-214
 20
369
 11
-214
 21
364
  0
LINE
  8
0
 10
-214
 20
364
 11
-130
 21
364
  0
LINE
  8
0
 10
-130
 20
364
 11
-129.563
 21
359.842
  0
LINE
  8
0
 10
-129.563
 20
359.842
 11
-128.271
 21
355.865
  0
LINE
  8
0
 10
-128.271
 20
355.865
 11
-126.18
 21
352.244
  0
LINE
  8
0
 10
-126.18
 20
352.244
 11
-123.383
 21
349.137
  0
LINE
  8
0
 10
-123.383
 20
349.137
 11
-120
 21
346.68
  0
LINE
  8
0
 10
-120
 20
346.68
 11
-116.18
 21
344.979
  0
LINE
  8
0
 10
-116.18
 20
344.979
 11
-112.091
 21
344.11
  0
LINE
  8
0
 10
-112.091
 20
344.11
 11
112.091
 21
344.11
  0
LINE
  8
0
 10
112.091
 20
344.11
 11
116.18
 21
344.979
  0
LINE
  8
0
 10
-150
 20
498
 11
-150
 21
504
  0
LINE
  8
0
 10
-150
 20
504
 11
-130
 21
504
  0
LINE
  8
0
 10
-130
 20
504
 11
-130
 21
498
  0
LINE
  8
0
 10
-130
 20
498
 11
-150
 21
498
  0
LINE
  8
0
 10
-190
 20
498
 11
-190
 21
504
  0
LINE
  8
0
 10
-190
 20
504
 11
-170
 21
504
  0
LINE
  8
0
 10
-170
 20
504
 11
-170
 21
498
  0
LINE
  8
0
 10
-170
 20
498
 11
-190
 21
498
  0
LINE
  8
0
 10
-110
 20
498
 11
-110
 21
504
  0
LINE
  8
0
 10
-110
 20
504
 11
-90
 21
504
  0
LINE
  8
0
 10
-90
 20
504
 11
-90
 21
498
  0
LINE
  8
0
 10
-90
 20
498
 11
-110
 21
498
  0
LINE
  8
0
 10
-70
 20
498
 11
-70
 21
504
  0
LINE
  8
0
 10
-70
 20
504
 11
-50
 21
504
  0
LINE
  8
0
 10
-50
 20
504
 11
-50
 21
498
  0
LINE
  8
0
 10
-50
 20
498
 11
-70
 21
498
  0
LINE
  8
0
 10
-30
 20
498
 11
-30
 21
504
  0
LINE
  8
0
 10
-30
 20
504
 11
-10
 21
504
  0
LINE
  8
0
 10
-10
 20
504
 11
-10
 21
498
  0
LINE
  8
0
 10
-10
 20
498
 11
-30
 21
498
  0
LINE
  8
0
 10
170
 20
498
 11
170
 21
504
  0
LINE
  8
0
 10
170
 20
504
 11
190
 21
504
  0
LINE
  8
0
 10
190
 20
504
 11
190
 21
498
  0
LINE
  8
0
 10
190
 20
498
 11
170
 21
498
  0
LINE
  8
0
 10
130
 20
498
 11
130
 21
504
  0
LINE
  8
0
 10
130
 20
504
 11
150
 21
504
  0
LINE
  8
0
 10
150
 20
504
 11
150
 21
498
  0
LINE
  8
0
 10
150
 20
498
 11
130
 21
498
  0
LINE
  8
0
 10
90
 20
498
 11
90
 21
504
  0
LINE
  8
0
 10
90
 20
504
 11
110
 21
504
  0
LINE
  8
0
 10
110
 20
504
 11
110
 21
498
  0
LINE
  8
0
 10
110
 20
498
 11
90
 21
498
  0
LINE
  8
0
 10
50
 20
498
 11
50
 21
504
  0
LINE
  8
0
 10
50
 20
504
 11
70
 21
504
  0
LINE
  8
0
 10
70
 20
504
 11
70
 21
498
  0
LINE
  8
0
 10
70
 20
498
 11
50
 21
498
  0
LINE
  8
0
 10
10
 20
498
 11
10
 21
504
  0
LINE
  8
0
 10
10
 20
504
 11
30
 21
504
  0
LINE
  8
0
 10
30
 20
504
 11
30
 21
498
  0
LINE
  8
0
 10
30
 20
498
 11
10
 21
498
  0
LINE
  8
0
 10
-1.80194
 20
500.132
 11
-1.80194
 21
501.868
  0
LINE
  8
0
 10
-1.80194
 20
501.868
 11
-0.445053
 21
502.95
  0
LINE
  8
0
 10
-0.445053
 20
502.95
 11
1.24698
 21
502.564
  0
LINE
  8
0
 10
1.24698
 20
502.564
 11
2
 21
501
  0
LINE
  8
0
 10
2
 20
501
 11
1.24698
 21
499.436
  0
LINE
  8
0
 10
1.24698
 20
499.436
 11
-0.445053
 21
499.05
  0
LINE
  8
0
 10
-0.445053
 20
499.05
 11
-1.80194
 21
500.132
  0
LINE
  8
0
 10
-636
 20
6
 11
-616
 21
6
  0
LINE
  8
0
 10
-616
 20
6
 11
-616
 21
0
  0
LINE
  8
0
 10
-616
 20
0
 11
-596
 21
0
  0
LINE
  8
0
 10
-596
 20
0
 11
-596
 21
6.00002
  0
LINE
  8
0
 10
-596
 20
6.00002
 11
-576
 21
6.00002
  0
LINE
  8
0
 10
-576
 20
6.00002
 11
-576
 21
0
  0
LINE
  8
0
 10
-576
 20
0
 11
-556
 21
0
  0
LINE
  8
0
 10
-556
 20
0
 11
-556
 21
6.00002
  0
LINE
  8
0
 10
-556
 20
6.00002
 11
-536
 21
6.00002
  0
LINE
  8
0
 10
-536
 20
6.00002
 11
-536
 21
0
  0
LINE
  8
0
 10
-536
 20
0
 11
-516
 21
0
  0
LINE
  8
0
 10
-516
 20
0
 11
-516
 21
6.00002
  0
LINE
  8
0
 10
-516
 20
6.00002
 11
-496
 21
6.00002
  0
LINE
  8
0
 10
-496
 20
6.00002
 11
-496
 21
0
  0
LINE
  8
0
 10
-496
 20
0
 11
-476
 21
0
  0
LINE
  8
0
 10
-476
 20
0
 11
-476
 21
6.00002
  0
LINE
  8
0
 10
-476
 20
6.00002
 11
-468
 21
6.00002
  0
LINE
  8
0
 10
-468
 20
6.00002
 11
-468
 21
22.5
  0
LINE
  8
0
 10
-468
 20
22.5
 11
-469.5
 21
22.5
  0
LINE
  8
0
 10
-469.5
 20
22.5
 11
-469.5
 21
26
  0
LINE
  8
0
 10
-469.5
 20
26
 11
-468
 21
26
  0
LINE
  8
0
 10
-468
 20
26
 11
-468
 21
32.5
  0
LINE
  8
0
 10
-468
 20
32.5
 11
-464
 21
32.5
  0
LINE
  8
0
 10
-464
 20
32.5
 11
-464
 21
26
  0
LINE
  8
0
 10
-464
 20
26
 11
-462.5
 21
26
  0
LINE
  8
0
 10
-462.5
 20
26
 11
-462.5
 21
22.5
  0
LINE
  8
0
 10
-462.5
 20
22.5
 11
-464
 21
22.5
  0
LINE
  8
0
 10
-464
 20
22.5
 11
-464
 21
6.00002
  0
LINE
  8
0
 10
-464
 20
6.00002
 11
-456
 21
6.00002
  0
LINE
  8
0
 10
-456
 20
6.00002
 11
-456
 21
0
  0
LINE
  8
0
 10
-456
 20
0
 11
-436
 21
0
  0
LINE
  8
0
 10
-436
 20
0
 11
-436
 21
6.00002
  0
LINE
  8
0
 10
-436
 20
6.00002
 11
-416
 21
6.00002
  0
LINE
  8
0
 10
-416
 20
6.00002
 11
-416
 21
0
  0
LINE
  8
0
 10
-416
 20
0
 11
-396
 21
0
  0
LINE
  8
0
 10
-396
 20
0
 11
-396
 21
6
  0
LINE
  8
0
 10
-396
 20
6
 11
-376
 21
6
  0
LINE
  8
0
 10
-376
 20
6
 11
-376
 21
0
  0
LINE
  8
0
 10
-376
 20
0
 11
-356
 21
0
  0
LINE
  8
0
 10
-356
 20
0
 11
-356
 21
6
  0
LINE
  8
0
 10
-356
 20
6
 11
-336
 21
6
  0
LINE
  8
0
 10
-336
 20
6
 11
-336
 21
0
  0
LINE
  8
0
 10
-336
 20
0
 11
-316
 21
0
  0
LINE
  8
0
 10
-316
 20
0
 11
-316
 21
6
  0
LINE
  8
0
 10
-316
 20
6
 11
-296
 21
6
  0
LINE
  8
0
 10
-296
 20
6
 11
-296
 21
0
  0
LINE
  8
0
 10
-296
 20
0
 11
-276
 21
0
  0
LINE
  8
0
 10
-276
 20
0
 11
-276
 21
6
  0
LINE
  8
0
 10
-276
 20
6
 11
-256
 21
6
  0
LINE
  8
0
 10
-256
 20
6
 11
-256
 21
9.99998
  0
LINE
  8
0
 10
-256
 20
9.99998
 11
-262
 21
9.99998
  0
LINE
  8
0
 10
-262
 20
9.99998
 11
-262
 21
30
  0
LINE
  8
0
 10
-262
 20
30
 11
-256
 21
30
  0
LINE
  8
0
 10
-256
 20
30
 11
-256
 21
50
  0
LINE
  8
0
 10
-256
 20
50
 11
-262
 21
50
  0
LINE
  8
0
 10
-262
 20
50
 11
-262
 21
70
  0
LINE
  8
0
 10
-262
 20
70
 11
-256
 21
70
  0
LINE
  8
0
 10
-256
 20
70
 11
-256
 21
90
  0
LINE
  8
0
 10
-256
 20
90
 11
-262
 21
90
  0
LINE
  8
0
 10
-262
 20
90
 11
-262
 21
110
  0
LINE
  8
0
 10
-262
 20
110
 11
-256
 21
110
  0
LINE
  8
0
 10
-256
 20
110
 11
-256
 21
130
  0
LINE
  8
0
 10
-256
 20
130
 11
-262
 21
130
  0
LINE
  8
0
 10
-262
 20
130
 11
-262
 21
150
  0
LINE
  8
0
 10
-262
 20
150
 11
-256
 21
150
  0
LINE
  8
0
 10
-256
 20
150
 11
-256
 21
170
  0
LINE
  8
0
 10
-256
 20
170
 11
-262
 21
170
  0
LINE
  8
0
 10
-262
 20
170
 11
-262
 21
190
  0
LINE
  8
0
 10
-262
 20
190
 11
-256
 21
190
  0
LINE
  8
0
 10
-256
 20
190
 11
-256
 21
210
  0
LINE
  8
0
 10
-256
 20
210
 11
-262
 21
210
  0
LINE
  8
0
 10
-262
 20
210
 11
-262
 21
218
  0
LINE
  8
0
 10
-262
 20
218
 11
-278.5
 21
218
  0
LINE
  8
0
 10
-278.5
 20
218
 11
-278.5
 21
216.5
  0
LINE
  8
0
 10
-278.5
 20
216.5
 11
-282
 21
216.5
  0
LINE
  8
0
 10
-282
 20
216.5
 11
-282
 21
218
  0
LINE
  8
0
 10
-282
 20
218
 11
-288.5
 21
218
  0
LINE
  8
0
 10
-288.5
 20
218
 11
-288.5
 21
222
  0
LINE
  8
0
 10
-288.5
 20
222
 11
-282
 21
222
  0
LINE
  8
0
 10
-282
 20
222
 11
-282
 21
223.5
  0
LINE
  8
0
 10
-282
 20
223.5
 11
-278.5
 21
223.5
  0
LINE
  8
0
 10
-278.5
 20
223.5
 11
-278.5
 21
222
  0
LINE
  8
0
 10
-278.5
 20
222
 11
-262
 21
222
  0
LINE
  8
0
 10
-262
 20
222
 11
-262
 21
230
  0
LINE
  8
0
 10
-262
 20
230
 11
-256
 21
230
  0
LINE
  8
0
 10
-256
 20
230
 11
-256
 21
250
  0
LINE
  8
0
 10
-256
 20
250
 11
-262
 21
250
  0
LINE
  8
0
 10
-262
 20
250
 11
-262
 21
270
  0
LINE
  8
0
 10
-262
 20
270
 11
-256
 21
270
  0
LINE
  8
0
 10
-256
 20
270
 11
-256
 21
290
  0
LINE
  8
0
 10
-256
 20
290
 11
-262
 21
290
  0
LINE
  8
0
 10
-262
 20
290
 11
-262
 21
310
  0
LINE
  8
0
 10
-262
 20
310
 11
-256
 21
310
  0
LINE
  8
0
 10
-256
 20
310
 11
-256
 21
330
  0
LINE
  8
0
 10
-256
 20
330
 11
-262
 21
330
  0
LINE
  8
0
 10
-262
 20
330
 11
-262
 21
350
  0
LINE
  8
0
 10
-262
 20
350
 11
-256
 21
350
  0
LINE
  8
0
 10
-256
 20
350
 11
-256
 21
370
  0
LINE
  8
0
 10
-256
 20
370
 11
-262
 21
370
  0
LINE
  8
0
 10
-262
 20
370
 11
-262
 21
390
  0
LINE
  8
0
 10
-262
 20
390
 11
-256
 21
390
  0
LINE
  8
0
 10
-256
 20
390
 11
-256
 21
410
  0
LINE
  8
0
 10
-256
 20
410
 11
-262
 21
410
  0
LINE
  8
0
 10
-262
 20
410
 11
-262
 21
430
  0
LINE
  8
0
 10
-262
 20
430
 11
-256
 21
430
  0
LINE
  8
0
 10
-256
 20
430
 11
-256
 21
434
  0
LINE
  8
0
 10
-256
 20
434
 11
-276
 21
434
  0
LINE
  8
0
 10
-276
 20
434
 11
-276
 21
440
  0
LINE
  8
0
 10
-276
 20
440
 11
-296
 21
440
  0
LINE
  8
0
 10
-296
 20
440
 11
-296
 21
434
  0
LINE
  8
0
 10
-296
 20
434
 11
-316
 21
434
  0
LINE
  8
0
 10
-316
 20
434
 11
-316
 21
440
  0
LINE
  8
0
 10
-316
 20
440
 11
-336
 21
440
  0
LINE
  8
0
 10
-336
 20
440
 11
-336
 21
434
  0
LINE
  8
0
 10
-336
 20
434
 11
-356
 21
434
  0
LINE
  8
0
 10
-356
 20
434
 11
-356
 21
440
  0
LINE
  8
0
 10
-356
 20
440
 11
-376
 21
440
  0
LINE
  8
0
 10
-376
 20
440
 11
-376
 21
434
  0
LINE
  8
0
 10
-376
 20
434
 11
-396
 21
434
  0
LINE
  8
0
 10
-396
 20
434
 11
-396
 21
440
  0
LINE
  8
0
 10
-396
 20
440
 11
-416
 21
440
  0
LINE
  8
0
 10
-416
 20
440
 11
-416
 21
434
  0
LINE
  8
0
 10
-416
 20
434
 11
-436
 21
434
  0
LINE
  8
0
 10
-436
 20
434
 11
-436
 21
440
  0
LINE
  8
0
 10
-436
 20
440
 11
-456
 21
440
  0
LINE
  8
0
 10
-456
 20
440
 11
-456
 21
434
  0
LINE
  8
0
 10
-456
 20
434
 11
-464
 21
434
  0
LINE
  8
0
 10
-464
 20
434
 11
-464
 21
417.5
  0
LINE
  8
0
 10
-464
 20
417.5
 11
-462.5
 21
417.5
  0
LINE
  8
0
 10
-462.5
 20
417.5
 11
-462.5
 21
414
  0
LINE
  8
0
 10
-462.5
 20
414
 11
-464
 21
414
  0
LINE
  8
0
 10
-464
 20
414
 11
-464
 21
407.5
  0
LINE
  8
0
 10
-464
 20
407.5
 11
-468
 21
407.5
  0
LINE
  8
0
 10
-468
 20
407.5
 11
-468
 21
414
  0
LINE
  8
0
 10
-468
 20
414
 11
-469.5
 21
414
  0
LINE
  8
0
 10
-469.5
 20
414
 11
-469.5
 21
417.5
  0
LINE
  8
0
 10
-469.5
 20
417.5
 11
-468
 21
417.5
  0
LINE
  8
0
 10
-468
 20
417.5
 11
-468
 21
434
  0
LINE
  8
0
 10
-468
 20
434
 11
-476
 21
434
  0
LINE
  8
0
 10
-476
 20
434
 11
-476
 21
440
  0
LINE
  8
0
 10
-476
 20
440
 11
-496
 21
440
  0
LINE
  8
0
 10
-496
 20
440
 11
-496
 21
434
  0
LINE
  8
0
 10
-496
 20
434
 11
-516
 21
434
  0
LINE
  8
0
 10
-516
 20
434
 11
-516
 21
440
  0
LINE
  8
0
 10
-516
 20
440
 11
-536
 21
440
  0
LINE
  8
0
 10
-536
 20
440
 11
-536
 21
434
  0
LINE
  8
0
 10
-536
 20
434
 11
-556
 21
434
  0
LINE
  8
0
 10
-556
 20
434
 11
-556
 21
440
  0
LINE
  8
0
 10
-556
 20
440
 11
-576
 21
440
  0
LINE
  8
0
 10
-576
 20
440
 11
-576
 21
434
  0
LINE
  8
0
 10
-576
 20
434
 11
-596
 21
434
  0
LINE
  8
0
 10
-596
 20
434
 11
-596
 21
440
  0
LINE
  8
0
 10
-596
 20
440
 11
-616
 21
440
  0
LINE
  8
0
 10
-616
 20
440
 11
-616
 21
434
  0
LINE
  8
0
 10
-616
 20
434
 11
-636
 21
434
  0
LINE
  8
0
 10
-636
 20
434
 11
-636
 21
440
  0
LINE
  8
0
 10
-636
 20
440
 11
-656
 21
440
  0
LINE
  8
0
 10
-656
 20
440
 11
-656
 21
434
  0
LINE
  8
0
 10
-656
 20
434
 11
-676
 21
434
  0
LINE
  8
0
 10
-676
 20
434
 11
-676
 21
430
  0
LINE
  8
0
 10
-676
 20
430
 11
-670
 21
430
  0
LINE
  8
0
 10
-670
 20
430
 11
-670
 21
410
  0
LINE
  8
0
 10
-670
 20
410
 11
-676
 21
410
  0
LINE
  8
0
 10
-676
 20
410
 11
-676
 21
390
  0
LINE
  8
0
 10
-676
 20
390
 11
-670
 21
390
  0
LINE
  8
0
 10
-670
 20
390
 11
-670
 21
370
  0
LINE
  8
0
 10
-670
 20
370
 11
-676
 21
370
  0
LINE
  8
0
 10
-676
 20
370
 11
-676
 21
350
  0
LINE
  8
0
 10
-676
 20
350
 11
-670
 21
350
  0
LINE
  8
0
 10
-670
 20
350
 11
-670
 21
330
  0
LINE
  8
0
 10
-670
 20
330
 11
-676
 21
330
  0
LINE
  8
0
 10
-676
 20
330
 11
-676
 21
310
  0
LINE
  8
0
 10
-676
 20
310
 11
-670
 21
310
  0
LINE
  8
0
 10
-670
 20
310
 11
-670
 21
290
  0
LINE
  8
0
 10
-670
 20
290
 11
-676
 21
290
  0
LINE
  8
0
 10
-676
 20
290
 11
-676
 21
270
  0
LINE
  8
0
 10
-676
 20
270
 11
-670
 21
270
  0
LINE
  8
0
 10
-670
 20
270
 11
-670
 21
250
  0
LINE
  8
0
 10
-670
 20
250
 11
-676
 21
250
  0
LINE
  8
0
 10
-676
 20
250
 11
-676
 21
230
  0
LINE
  8
0
 10
-676
 20
230
 11
-670
 21
230
  0
LINE
  8
0
 10
-670
 20
230
 11
-670
 21
222
  0
LINE
  8
0
 10
-670
 20
222
 11
-653.5
 21
222
  0
LINE
  8
0
 10
-653.5
 20
222
 11
-653.5
 21
223.5
  0
LINE
  8
0
 10
-653.5
 20
223.5
 11
-650
 21
223.5
  0
LINE
  8
0
 10
-650
 20
223.5
 11
-650
 21
222
  0
LINE
  8
0
 10
-650
 20
222
 11
-643.5
 21
222
  0
LINE
  8
0
 10
-643.5
 20
222
 11
-643.5
 21
218
  0
LINE
  8
0
 10
-643.5
 20
218
 11
-650
 21
218
  0
LINE
  8
0
 10
-650
 20
218
 11
-650
 21
216.5
  0
LINE
  8
0
 10
-650
 20
216.5
 11
-653.5
 21
216.5
  0
LINE
  8
0
 10
-653.5
 20
216.5
 11
-653.5
 21
218
  0
LINE
  8
0
 10
-653.5
 20
218
 11
-670
 21
218
  0
LINE
  8
0
 10
-670
 20
218
 11
-670
 21
210
  0
LINE
  8
0
 10
-670
 20
210
 11
-676
 21
210
  0
LINE
  8
0
 10
-676
 20
210
 11
-676
 21
190
  0
LINE
  8
0
 10
-676
 20
190
 11
-670
 21
190
  0
LINE
  8
0
 10
-670
 20
190
 11
-670
 21
170
  0
LINE
  8
0
 10
-670
 20
170
 11
-676
 21
170
  0
LINE
  8
0
 10
-676
 20
170
 11
-676
 21
150
  0
LINE
  8
0
 10
-676
 20
150
 11
-670
 21
150
  0
LINE
  8
0
 10
-670
 20
150
 11
-670
 21
130
  0
LINE
  8
0
 10
-670
 20
130
 11
-676
 21
130
  0
LINE
  8
0
 10
-676
 20
130
 11
-676
 21
110
  0
LINE
  8
0
 10
-676
 20
110
 11
-670
 21
110
  0
LINE
  8
0
 10
-670
 20
110
 11
-670
 21
90
  0
LINE
  8
0
 10
-670
 20
90
 11
-676
 21
90
  0
LINE
  8
0
 10
-676
 20
90
 11
-676
 21
70
  0
LINE
  8
0
 10
-676
 20
70
 11
-670
 21
70
  0
LINE
  8
0
 10
-670
 20
70
 11
-670
 21
50
  0
LINE
  8
0
 10
-670
 20
50
 11
-676
 21
50
  0
LINE
  8
0
 10
-676
 20
50
 11
-676
 21
30
  0
LINE
  8
0
 10
-676
 20
30
 11
-670
 21
30
  0
LINE
  8
0
 10
-670
 20
30
 11
-670
 21
10
  0
LINE
  8
0
 10
-670
 20
10
 11
-676
 21
10
  0
LINE
  8
0
 10
-676
 20
10
 11
-676
 21
6
  0
LINE
  8
0
 10
-676
 20
6
 11
-656
 21
6
  0
LINE
  8
0
 10
-656
 20
6
 11
-656
 21
0
  0
LINE
  8
0
 10
-656
 20
0
 11
-636
 21
0
  0
LINE
  8
0
 10
-636
 20
0
 11
-636
 21
6
  0
LINE
  8
0
 10
-468.079
 20
210.219
 11
-470.067
 21
210.865
  0
LINE
  8
0
 10
-470.067
 20
210.865
 11
-471.878
 21
211.91
  0
LINE
  8
0
 10
-471.878
 20
211.91
 11
-473.431
 21
213.309
  0
LINE
  8
0
 10
-473.431
 20
213.309
 11
-474.66
 21
215
  0
LINE
  8
0
 10
-474.66
 20
215
 11
-475.511
 21
216.91
  0
LINE
  8
0
 10
-475.511
 20
216.91
 11
-475.945
 21
218.955
  0
LINE
  8
0
 10
-475.945
 20
218.955
 11
-475.945
 21
221.045
  0
LINE
  8
0
 10
-475.945
 20
221.045
 11
-475.511
 21
223.09
  0
LINE
  8
0
 10
-475.511
 20
223.09
 11
-474.66
 21
225
  0
LINE
  8
0
 10
-474.66
 20
225
 11
-473.431
 21
226.691
  0
LINE
  8
0
 10
-473.431
 20
226.691
 11
-471.878
 21
228.09
  0
LINE
  8
0
 10
-471.878
 20
228.09
 11
-470.067
 21
229.135
  0
LINE
  8
0
 10
-470.067
 20
229.135
 11
-468.079
 21
229.781
  0
LINE
  8
0
 10
-468.079
 20
229.781
 11
-466
 21
230
  0
LINE
  8
0
 10
-466
 20
230
 11
-463.921
 21
229.781
  0
LINE
  8
0
 10
-463.921
 20
229.781
 11
-461.933
 21
229.135
  0
LINE
  8
0
 10
-461.933
 20
229.135
 11
-460.122
 21
228.09
  0
LINE
  8
0
 10
-460.122
 20
228.09
 11
-458.569
 21
226.691
  0
LINE
  8
0
 10
-458.569
 20
226.691
 11
-457.34
 21
225
  0
LINE
  8
0
 10
-457.34
 20
225
 11
-456.489
 21
223.09
  0
LINE
  8
0
 10
-456.489
 20
223.09
 11
-456.055
 21
221.045
  0
LINE
  8
0
 10
-456.055
 20
221.045
 11
-456.055
 21
218.955
  0
LINE
  8
0
 10
-456.055
 20
218.955
 11
-456.489
 21
216.91
  0
LINE
  8
0
 10
-456.489
 20
216.91
 11
-457.34
 21
215
  0
LINE
  8
0
 10
-457.34
 20
215
 11
-458.569
 21
213.309
  0
LINE
  8
0
 10
-458.569
 20
213.309
 11
-460.122
 21
211.91
  0
LINE
  8
0
 10
-460.122
 20
211.91
 11
-461.933
 21
210.865
  0
LINE
  8
0
 10
-461.933
 20
210.865
 11
-463.921
 21
210.219
  0
LINE
  8
0
 10
-463.921
 20
210.219
 11
-466
 21
210
  0
LINE
  8
0
 10
-466
 20
210
 11
-468.079
 21
210.219
  0
LINE
  8
0
 10
111.18
 20
172.979
 11
115
 21
174.68
  0
LINE
  8
0
 10
115
 20
174.68
 11
118.383
 21
177.137
  0
LINE
  8
0
 10
118.383
 20
177.137
 11
121.18
 21
180.244
  0
LINE
  8
0
 10
121.18
 20
180.244
 11
123.271
 21
183.865
  0
LINE
  8
0
 10
123.271
 20
183.865
 11
124.563
 21
187.842
  0
LINE
  8
0
 10
124.563
 20
187.842
 11
125
 21
192
  0
LINE
  8
0
 10
125
 20
192
 11
143
 21
192
  0
LINE
  8
0
 10
143
 20
192
 11
143
 21
232
  0
LINE
  8
0
 10
143
 20
232
 11
143.284
 21
233.972
  0
LINE
  8
0
 10
143.284
 20
233.972
 11
144.111
 21
235.784
  0
LINE
  8
0
 10
144.111
 20
235.784
 11
145.416
 21
237.29
  0
LINE
  8
0
 10
145.416
 20
237.29
 11
147.092
 21
238.367
  0
LINE
  8
0
 10
147.092
 20
238.367
 11
149.004
 21
238.929
  0
LINE
  8
0
 10
149.004
 20
238.929
 11
150.996
 21
238.929
  0
LINE
  8
0
 10
150.996
 20
238.929
 11
152.908
 21
238.367
  0
LINE
  8
0
 10
152.908
 20
238.367
 11
154.584
 21
237.29
  0
LINE
  8
0
 10
154.584
 20
237.29
 11
155.889
 21
235.784
  0
LINE
  8
0
 10
155.889
 20
235.784
 11
156.716
 21
233.972
  0
LINE
  8
0
 10
156.716
 20
233.972
 11
157
 21
232
  0
LINE
  8
0
 10
157
 20
232
 11
157
 21
192
  0
LINE
  8
0
 10
157
 20
192
 11
220
 21
192
  0
LINE
  8
0
 10
220
 20
192
 11
220
 21
342
  0
LINE
  8
0
 10
220
 20
342
 11
-220
 21
342
  0
LINE
  8
0
 10
-220
 20
342
 11
-220
 21
192
  0
LINE
  8
0
 10
-220
 20
192
 11
-125
 21
192
  0
LINE
  8
0
 10
-125
 20
192
 11
-124.563
 21
187.842
  0
LINE
  8
0
 10
-124.563
 20
187.842
 11
-123.271
 21
183.865
  0
LINE
  8
0
 10
-123.271
 20
183.865
 11
-121.18
 21
180.244
  0
LINE
  8
0
 10
-121.18
 20
180.244
 11
-118.383
 21
177.137
  0
LINE
  8
0
 10
-118.383
 20
177.137
 11
-115
 21
174.68
  0
LINE
  8
0
 10
-115
 20
174.68
 11
-111.18
 21
172.979
  0
LINE
  8
0
 10
-111.18
 20
172.979
 11
-107.091
 21
172.11
  0
LINE
  8
0
 10
-107.091
 20
172.11
 11
107.091
 21
172.11
  0
LINE
  8
0
 10
107.091
 20
172.11
 11
111.18
 21
172.979
  0
LINE
  8
0
 10
-210
 20
317
 11
-210
 21
337
  0
LINE
  8
0
 10
-210
 20
337
 11
-204
 21
337
  0
LINE
  8
0
 10
-204
 20
337
 11
-204
 21
317
  0
LINE
  8
0
 10
-204
 20
317
 11
-210
 21
317
  0
LINE
  8
0
 10
204
 20
317
 11
204
 21
337
  0
LINE
  8
0
 10
204
 20
337
 11
210
 21
337
  0
LINE
  8
0
 10
210
 20
337
 11
210
 21
317
  0
LINE
  8
0
 10
210
 20
317
 11
204
 21
317
  0
LINE
  8
0
 10
-190
 20
326
 11
-190
 21
332
  0
LINE
  8
0
 10
-190
 20
332
 11
-170
 21
332
  0
LINE
  8
0
 10
-170
 20
332
 11
-170
 21
326
  0
LINE
  8
0
 10
-170
 20
326
 11
-190
 21
326
  0
LINE
  8
0
 10
-150
 20
326
 11
-150
 21
332
  0
LINE
  8
0
 10
-150
 20
332
 11
-130
 21
332
  0
LINE
  8
0
 10
-130
 20
332
 11
-130
 21
326
  0
LINE
  8
0
 10
-130
 20
326
 11
-150
 21
326
  0
LINE
  8
0
 10
170
 20
326
 11
170
 21
332
  0
LINE
  8
0
 10
170
 20
332
 11
190
 21
332
  0
LINE
  8
0
 10
190
 20
332
 11
190
 21
326
  0
LINE
  8
0
 10
190
 20
326
 11
170
 21
326
  0
LINE
  8
0
 10
130
 20
326
 11
130
 21
332
  0
LINE
  8
0
 10
130
 20
332
 11
150
 21
332
  0
LINE
  8
0
 10
150
 20
332
 11
150
 21
326
  0
LINE
  8
0
 10
150
 20
326
 11
130
 21
326
  0
LINE
  8
0
 10
90
 20
326
 11
90
 21
332
  0
LINE
  8
0
 10
90
 20
332
 11
110
 21
332
  0
LINE
  8
0
 10
110
 20
332
 11
110
 21
326
  0
LINE
  8
0
 10
110
 20
326
 11
90
 21
326
  0
LINE
  8
0
 10
50
 20
326
 11
50
 21
332
  0
LINE
  8
0
 10
50
 20
332
 11
70
 21
332
  0
LINE
  8
0
 10
70
 20
332
 11
70
 21
326
  0
LINE
  8
0
 10
70
 20
326
 11
50
 21
326
  0
LINE
  8
0
 10
10
 20
326
 11
10
 21
332
  0
LINE
  8
0
 10
10
 20
332
 11
30
 21
332
  0
LINE
  8
0
 10
30
 20
332
 11
30
 21
326
  0
LINE
  8
0
 10
30
 20
326
 11
10
 21
326
  0
LINE
  8
0
 10
-30
 20
326
 11
-30
 21
332
  0
LINE
  8
0
 10
-30
 20
332
 11
-10
 21
332
  0
LINE
  8
0
 10
-10
 20
332
 11
-10
 21
326
  0
LINE
  8
0
 10
-10
 20
326
 11
-30
 21
326
  0
LINE
  8
0
 10
-70
 20
326
 11
-70
 21
332
  0
LINE
  8
0
 10
-70
 20
332
 11
-50
 21
332
  0
LINE
  8
0
 10
-50
 20
332
 11
-50
 21
326
  0
LINE
  8
0
 10
-50
 20
326
 11
-70
 21
326
  0
LINE
  8
0
 10
-110
 20
326
 11
-110
 21
332
  0
LINE
  8
0
 10
-110
 20
332
 11
-90
 21
332
  0
LINE
  8
0
 10
-90
 20
332
 11
-90
 21
326
  0
LINE
  8
0
 10
-90
 20
326
 11
-110
 21
326
  0
LINE
  8
0
 10
-1.80194
 20
328.132
 11
-1.80194
 21
329.868
  0
LINE
  8
0
 10
-1.80194
 20
329.868
 11
-0.445053
 21
330.95
  0
LINE
  8
0
 10
-0.445053
 20
330.95
 11
1.24698
 21
330.564
  0
LINE
  8
0
 10
1.24698
 20
330.564
 11
2
 21
329
  0
LINE
  8
0
 10
2
 20
329
 11
1.24698
 21
327.436
  0
LINE
  8
0
 10
1.24698
 20
327.436
 11
-0.445053
 21
327.05
  0
LINE
  8
0
 10
-0.445053
 20
327.05
 11
-1.80194
 21
328.132
  0
LINE
  8
0
 10
204
 20
277
 11
204
 21
297
  0
LINE
  8
0
 10
204
 20
297
 11
210
 21
297
  0
LINE
  8
0
 10
210
 20
297
 11
210
 21
277
  0
LINE
  8
0
 10
210
 20
277
 11
204
 21
277
  0
LINE
  8
0
 10
-210
 20
277
 11
-210
 21
297
  0
LINE
  8
0
 10
-210
 20
297
 11
-204
 21
297
  0
LINE
  8
0
 10
-204
 20
297
 11
-204
 21
277
  0
LINE
  8
0
 10
-204
 20
277
 11
-210
 21
277
  0
LINE
  8
0
 10
206.132
 20
265.198
 11
205.05
 21
266.555
  0
LINE
  8
0
 10
205.05
 20
266.555
 11
205.436
 21
268.247
  0
LINE
  8
0
 10
205.436
 20
268.247
 11
207
 21
269
  0
LINE
  8
0
 10
207
 20
269
 11
208.564
 21
268.247
  0
LINE
  8
0
 10
208.564
 20
268.247
 11
208.95
 21
266.555
  0
LINE
  8
0
 10
208.95
 20
266.555
 11
207.868
 21
265.198
  0
LINE
  8
0
 10
207.868
 20
265.198
 11
206.132
 21
265.198
  0
LINE
  8
0
 10
-207.868
 20
265.198
 11
-208.95
 21
266.555
  0
LINE
  8
0
 10
-208.95
 20
266.555
 11
-208.564
 21
268.247
  0
LINE
  8
0
 10
-208.564
 20
268.247
 11
-207
 21
269
  0
LINE
  8
0
 10
-207
 20
269
 11
-205.436
 21
268.247
  0
LINE
  8
0
 10
-205.436
 20
268.247
 11
-205.05
 21
266.555
  0
LINE
  8
0
 10
-205.05
 20
266.555
 11
-206.132
 21
265.198
  0
LINE
  8
0
 10
-206.132
 20
265.198
 11
-207.868
 21
265.198
  0
LINE
  8
0
 10
-210
 20
237
 11
-210
 21
257
  0
LINE
  8
0
 10
-210
 20
257
 11
-204
 21
257
  0
LINE
  8
0
 10
-204
 20
257
 11
-204
 21
237
  0
LINE
  8
0
 10
-204
 20
237
 11
-210
 21
237
  0
LINE
  8
0
 10
204
 20
237
 11
204
 21
257
  0
LINE
  8
0
 10
204
 20
257
 11
210
 21
257
  0
LINE
  8
0
 10
210
 20
257
 11
210
 21
237
  0
LINE
  8
0
 10
210
 20
237
 11
204
 21
237
  0
LINE
  8
0
 10
204
 20
197
 11
204
 21
217
  0
LINE
  8
0
 10
204
 20
217
 11
210
 21
217
  0
LINE
  8
0
 10
210
 20
217
 11
210
 21
197
  0
LINE
  8
0
 10
210
 20
197
 11
204
 21
197
  0
LINE
  8
0
 10
-210
 20
197
 11
-210
 21
217
  0
LINE
  8
0
 10
-210
 20
217
 11
-204
 21
217
  0
LINE
  8
0
 10
-204
 20
217
 11
-204
 21
197
  0
LINE
  8
0
 10
-204
 20
197
 11
-210
 21
197
  0
LINE
  8
0
 10
111.18
 20
0.978882
 11
115
 21
2.6795
  0
LINE
  8
0
 10
115
 20
2.6795
 11
118.383
 21
5.13712
  0
LINE
  8
0
 10
118.383
 20
5.13712
 11
121.18
 21
8.24431
  0
LINE
  8
0
 10
121.18
 20
8.24431
 11
123.271
 21
11.8653
  0
LINE
  8
0
 10
123.271
 20
11.8653
 11
124.563
 21
15.8418
  0
LINE
  8
0
 10
124.563
 20
15.8418
 11
125
 21
20
  0
LINE
  8
0
 10
125
 20
20
 11
220
 21
20
  0
LINE
  8
0
 10
220
 20
20
 11
220
 21
170
  0
LINE
  8
0
 10
220
 20
170
 11
-220
 21
170
  0
LINE
  8
0
 10
-220
 20
170
 11
-220
 21
20
  0
LINE
  8
0
 10
-220
 20
20
 11
-125
 21
20
  0
LINE
  8
0
 10
-125
 20
20
 11
-124.563
 21
15.8418
  0
LINE
  8
0
 10
-124.563
 20
15.8418
 11
-123.271
 21
11.8653
  0
LINE
  8
0
 10
-123.271
 20
11.8653
 11
-121.18
 21
8.24431
  0
LINE
  8
0
 10
-121.18
 20
8.24431
 11
-118.383
 21
5.13712
  0
LINE
  8
0
 10
-118.383
 20
5.13712
 11
-115
 21
2.6795
  0
LINE
  8
0
 10
-115
 20
2.6795
 11
-111.18
 21
0.978882
  0
LINE
  8
0
 10
-111.18
 20
0.978882
 11
-107.091
 21
0.109573
  0
LINE
  8
0
 10
-107.091
 20
0.109573
 11
107.091
 21
0.109573
  0
LINE
  8
0
 10
107.091
 20
0.109573
 11
111.18
 21
0.978882
  0
LINE
  8
0
 10
204
 20
145
 11
204
 21
165
  0
LINE
  8
0
 10
204
 20
165
 11
210
 21
165
  0
LINE
  8
0
 10
210
 20
165
 11
210
 21
145
  0
LINE
  8
0
 10
210
 20
145
 11
204
 21
145
  0
LINE
  8
0
 10
-210
 20
145
 11
-210
 21
165
  0
LINE
  8
0
 10
-210
 20
165
 11
-204
 21
165
  0
LINE
  8
0
 10
-204
 20
165
 11
-204
 21
145
  0
LINE
  8
0
 10
-204
 20
145
 11
-210
 21
145
  0
LINE
  8
0
 10
-190
 20
154
 11
-190
 21
160
  0
LINE
  8
0
 10
-190
 20
160
 11
-170
 21
160
  0
LINE
  8
0
 10
-170
 20
160
 11
-170
 21
154
  0
LINE
  8
0
 10
-170
 20
154
 11
-190
 21
154
  0
LINE
  8
0
 10
-150
 20
154
 11
-150
 21
160
  0
LINE
  8
0
 10
-150
 20
160
 11
-130
 21
160
  0
LINE
  8
0
 10
-130
 20
160
 11
-130
 21
154
  0
LINE
  8
0
 10
-130
 20
154
 11
-150
 21
154
  0
LINE
  8
0
 10
170
 20
154
 11
170
 21
160
  0
LINE
  8
0
 10
170
 20
160
 11
190
 21
160
  0
LINE
  8
0
 10
190
 20
160
 11
190
 21
154
  0
LINE
  8
0
 10
190
 20
154
 11
170
 21
154
  0
LINE
  8
0
 10
130
 20
154
 11
130
 21
160
  0
LINE
  8
0
 10
130
 20
160
 11
150
 21
160
  0
LINE
  8
0
 10
150
 20
160
 11
150
 21
154
  0
LINE
  8
0
 10
150
 20
154
 11
130
 21
154
  0
LINE
  8
0
 10
90
 20
154
 11
90
 21
160
  0
LINE
  8
0
 10
90
 20
160
 11
110
 21
160
  0
LINE
  8
0
 10
110
 20
160
 11
110
 21
154
  0
LINE
  8
0
 10
110
 20
154
 11
90
 21
154
  0
LINE
  8
0
 10
50
 20
154
 11
50
 21
160
  0
LINE
  8
0
 10
50
 20
160
 11
70
 21
160
  0
LINE
  8
0
 10
70
 20
160
 11
70
 21
154
  0
LINE
  8
0
 10
70
 20
154
 11
50
 21
154
  0
LINE
  8
0
 10
10
 20
154
 11
10
 21
160
  0
LINE
  8
0
 10
10
 20
160
 11
30
 21
160
  0
LINE
  8
0
 10
30
 20
160
 11
30
 21
154
  0
LINE
  8
0
 10
30
 20
154
 11
10
 21
154
  0
LINE
  8
0
 10
-30
 20
154
 11
-30
 21
160
  0
LINE
  8
0
 10
-30
 20
160
 11
-10
 21
160
  0
LINE
  8
0
 10
-10
 20
160
 11
-10
 21
154
  0
LINE
  8
0
 10
-10
 20
154
 11
-30
 21
154
  0
LINE
  8
0
 10
-70
 20
154
 11
-70
 21
160
  0
LINE
  8
0
 10
-70
 20
160
 11
-50
 21
160
  0
LINE
  8
0
 10
-50
 20
160
 11
-50
 21
154
  0
LINE
  8
0
 10
-50
 20
154
 11
-70
 21
154
  0
LINE
  8
0
 10
-110
 20
154
 11
-110
 21
160
  0
LINE
  8
0
 10
-110
 20
160
 11
-90
 21
160
  0
LINE
  8
0
 10
-90
 20
160
 11
-90
 21
154
  0
LINE
  8
0
 10
-90
 20
154
 11
-110
 21
154
  0
LINE
  8
0
 10
-1.80194
 20
156.132
 11
-1.80194
 21
157.868
  0
LINE
  8
0
 10
-1.80194
 20
157.868
 11
-0.445053
 21
158.95
  0
LINE
  8
0
 10
-0.445053
 20
158.95
 11
1.24698
 21
158.564
  0
LINE
  8
0
 10
1.24698
 20
158.564
 11
2
 21
157
  0
LINE
  8
0
 10
2
 20
157
 11
1.24698
 21
155.436
  0
LINE
  8
0
 10
1.24698
 20
155.436
 11
-0.445053
 21
155.05
  0
LINE
  8
0
 10
-0.445053
 20
155.05
 11
-1.80194
 21
156.132
  0
LINE
  8
0
 10
204
 20
105
 11
204
 21
125
  0
LINE
  8
0
 10
204
 20
125
 11
210
 21
125
  0
LINE
  8
0
 10
210
 20
125
 11
210
 21
105
  0
LINE
  8
0
 10
210
 20
105
 11
204
 21
105
  0
LINE
  8
0
 10
-210
 20
105
 11
-210
 21
125
  0
LINE
  8
0
 10
-210
 20
125
 11
-204
 21
125
  0
LINE
  8
0
 10
-204
 20
125
 11
-204
 21
105
  0
LINE
  8
0
 10
-204
 20
105
 11
-210
 21
105
  0
LINE
  8
0
 10
206.132
 20
93.1981
 11
205.05
 21
94.5549
  0
LINE
  8
0
 10
205.05
 20
94.5549
 11
205.436
 21
96.247
  0
LINE
  8
0
 10
205.436
 20
96.247
 11
207
 21
97
  0
LINE
  8
0
 10
207
 20
97
 11
208.564
 21
96.247
  0
LINE
  8
0
 10
208.564
 20
96.247
 11
208.95
 21
94.5549
  0
LINE
  8
0
 10
208.95
 20
94.5549
 11
207.868
 21
93.1981
  0
LINE
  8
0
 10
207.868
 20
93.1981
 11
206.132
 21
93.1981
  0
LINE
  8
0
 10
-207.868
 20
93.1981
 11
-208.95
 21
94.5549
  0
LINE
  8
0
 10
-208.95
 20
94.5549
 11
-208.564
 21
96.247
  0
LINE
  8
0
 10
-208.564
 20
96.247
 11
-207
 21
97
  0
LINE
  8
0
 10
-207
 20
97
 11
-205.436
 21
96.247
  0
LINE
  8
0
 10
-205.436
 20
96.247
 11
-205.05
 21
94.5549
  0
LINE
  8
0
 10
-205.05
 20
94.5549
 11
-206.132
 21
93.1981
  0
LINE
  8
0
 10
-206.132
 20
93.1981
 11
-207.868
 21
93.1981
  0
LINE
  8
0
 10
-210
 20
65
 11
-210
 21
85
  0
LINE
  8
0
 10
-210
 20
85
 11
-204
 21
85
  0
LINE
  8
0
 10
-204
 20
85
 11
-204
 21
65
  0
LINE
  8
0
 10
-204
 20
65
 11
-210
 21
65
  0
LINE
  8
0
 10
204
 20
65
 11
204
 21
85
  0
LINE
  8
0
 10
204
 20
85
 11
210
 21
85
  0
LINE
  8
0
 10
210
 20
85
 11
210
 21
65
  0
LINE
  8
0
 10
210
 20
65
 11
204
 21
65
  0
LINE
  8
0
 10
-210
 20
25
 11
-210
 21
45
  0
LINE
  8
0
 10
-210
 20
45
 11
-204
 21
45
  0
LINE
  8
0
 10
-204
 20
45
 11
-204
 21
25
  0
LINE
  8
0
 10
-204
 20
25
 11
-210
 21
25
  0
LINE
  8
0
 10
204
 20
25
 11
204
 21
45
  0
LINE
  8
0
 10
204
 20
45
 11
210
 21
45
  0
LINE
  8
0
 10
210
 20
45
 11
210
 21
25
  0
LINE
  8
0
 10
210
 20
25
 11
204
 21
25
  0
ENDSEC
  0
SECTION
  2
OBJECTS
  0
DICTIONARY
  0
ENDSEC
  0
EOF
