  0
SECTION
  2
BLOCKS
  0
ENDSEC
  0
SECTION
  2
ENTITIES
  0
LINE
  8
0
 10
111.18
 20
402.979
 11
115
 21
404.68
  0
LINE
  8
0
 10
115
 20
404.68
 11
118.383
 21
407.137
  0
LINE
  8
0
 10
118.383
 20
407.137
 11
121.18
 21
410.244
  0
LINE
  8
0
 10
121.18
 20
410.244
 11
123.271
 21
413.865
  0
LINE
  8
0
 10
123.271
 20
413.865
 11
124.563
 21
417.842
  0
LINE
  8
0
 10
124.563
 20
417.842
 11
125
 21
422
  0
LINE
  8
0
 10
125
 20
422
 11
143
 21
422
  0
LINE
  8
0
 10
143
 20
422
 11
143
 21
452
  0
LINE
  8
0
 10
143
 20
452
 11
143.284
 21
453.972
  0
LINE
  8
0
 10
143.284
 20
453.972
 11
144.111
 21
455.784
  0
LINE
  8
0
 10
144.111
 20
455.784
 11
145.416
 21
457.29
  0
LINE
  8
0
 10
145.416
 20
457.29
 11
147.092
 21
458.367
  0
LINE
  8
0
 10
147.092
 20
458.367
 11
149.004
 21
458.929
  0
LINE
  8
0
 10
149.004
 20
458.929
 11
150.996
 21
458.929
  0
LINE
  8
0
 10
150.996
 20
458.929
 11
152.908
 21
458.367
  0
LINE
  8
0
 10
152.908
 20
458.367
 11
154.584
 21
457.29
  0
LINE
  8
0
 10
154.584
 20
457.29
 11
155.889
 21
455.784
  0
LINE
  8
0
 10
155.889
 20
455.784
 11
156.716
 21
453.972
  0
LINE
  8
0
 10
156.716
 20
453.972
 11
157
 21
452
  0
LINE
  8
0
 10
157
 20
452
 11
157
 21
422
  0
LINE
  8
0
 10
157
 20
422
 11
203.38
 21
422
  0
LINE
  8
0
 10
203.38
 20
422
 11
200.05
 21
429.14
  0
LINE
  8
0
 10
200.05
 20
429.14
 11
205.488
 21
431.675
  0
LINE
  8
0
 10
205.488
 20
431.675
 11
210
 21
422
  0
LINE
  8
0
 10
210
 20
422
 11
220
 21
422
  0
LINE
  8
0
 10
220
 20
422
 11
220
 21
432.723
  0
LINE
  8
0
 10
220
 20
432.723
 11
38.4769
 21
822
  0
LINE
  8
0
 10
38.4769
 20
822
 11
-220
 21
822
  0
LINE
  8
0
 10
-220
 20
822
 11
-220
 21
422
  0
LINE
  8
0
 10
-220
 20
422
 11
-125
 21
422
  0
LINE
  8
0
 10
-125
 20
422
 11
-124.563
 21
417.842
  0
LINE
  8
0
 10
-124.563
 20
417.842
 11
-123.271
 21
413.865
  0
LINE
  8
0
 10
-123.271
 20
413.865
 11
-121.18
 21
410.244
  0
LINE
  8
0
 10
-121.18
 20
410.244
 11
-118.383
 21
407.137
  0
LINE
  8
0
 10
-118.383
 20
407.137
 11
-115
 21
404.68
  0
LINE
  8
0
 10
-115
 20
404.68
 11
-111.18
 21
402.979
  0
LINE
  8
0
 10
-111.18
 20
402.979
 11
-107.091
 21
402.11
  0
LINE
  8
0
 10
-107.091
 20
402.11
 11
107.091
 21
402.11
  0
LINE
  8
0
 10
107.091
 20
402.11
 11
111.18
 21
402.979
  0
LINE
  8
0
 10
18.0391
 20
819.464
 11
23.4769
 21
822
  0
LINE
  8
0
 10
23.4769
 20
822
 11
27.9886
 21
812.325
  0
LINE
  8
0
 10
27.9886
 20
812.325
 11
22.5508
 21
809.789
  0
LINE
  8
0
 10
22.5508
 20
809.789
 11
18.0391
 21
819.464
  0
LINE
  8
0
 10
-83.2615
 20
806
 11
-83.2615
 21
812
  0
LINE
  8
0
 10
-83.2615
 20
812
 11
-63.2615
 21
812
  0
LINE
  8
0
 10
-63.2615
 20
812
 11
-63.2615
 21
806
  0
LINE
  8
0
 10
-63.2615
 20
806
 11
-83.2615
 21
806
  0
LINE
  8
0
 10
-43.2615
 20
806
 11
-43.2615
 21
812
  0
LINE
  8
0
 10
-43.2615
 20
812
 11
-23.2615
 21
812
  0
LINE
  8
0
 10
-23.2615
 20
812
 11
-23.2615
 21
806
  0
LINE
  8
0
 10
-23.2615
 20
806
 11
-43.2615
 21
806
  0
LINE
  8
0
 10
-210
 20
792
 11
-210
 21
812
  0
LINE
  8
0
 10
-210
 20
812
 11
-204
 21
812
  0
LINE
  8
0
 10
-204
 20
812
 11
-204
 21
792
  0
LINE
  8
0
 10
-204
 20
792
 11
-210
 21
792
  0
LINE
  8
0
 10
-203.262
 20
806
 11
-203.262
 21
812
  0
LINE
  8
0
 10
-203.262
 20
812
 11
-183.262
 21
812
  0
LINE
  8
0
 10
-183.262
 20
812
 11
-183.262
 21
806
  0
LINE
  8
0
 10
-183.262
 20
806
 11
-203.262
 21
806
  0
LINE
  8
0
 10
-3.26154
 20
806
 11
-3.26154
 21
812
  0
LINE
  8
0
 10
-3.26154
 20
812
 11
16.7385
 21
812
  0
LINE
  8
0
 10
16.7385
 20
812
 11
16.7385
 21
806
  0
LINE
  8
0
 10
16.7385
 20
806
 11
-3.26154
 21
806
  0
LINE
  8
0
 10
-123.262
 20
806
 11
-123.262
 21
812
  0
LINE
  8
0
 10
-123.262
 20
812
 11
-103.262
 21
812
  0
LINE
  8
0
 10
-103.262
 20
812
 11
-103.262
 21
806
  0
LINE
  8
0
 10
-103.262
 20
806
 11
-123.262
 21
806
  0
LINE
  8
0
 10
-163.262
 20
806
 11
-163.262
 21
812
  0
LINE
  8
0
 10
-163.262
 20
812
 11
-143.262
 21
812
  0
LINE
  8
0
 10
-143.262
 20
812
 11
-143.262
 21
806
  0
LINE
  8
0
 10
-143.262
 20
806
 11
-163.262
 21
806
  0
LINE
  8
0
 10
-55.0635
 20
808.132
 11
-55.0635
 21
809.868
  0
LINE
  8
0
 10
-55.0635
 20
809.868
 11
-53.7066
 21
810.95
  0
LINE
  8
0
 10
-53.7066
 20
810.95
 11
-52.0146
 21
810.564
  0
LINE
  8
0
 10
-52.0146
 20
810.564
 11
-51.2615
 21
809
  0
LINE
  8
0
 10
-51.2615
 20
809
 11
-52.0146
 21
807.436
  0
LINE
  8
0
 10
-52.0146
 20
807.436
 11
-53.7066
 21
807.05
  0
LINE
  8
0
 10
-53.7066
 20
807.05
 11
-55.0635
 21
808.132
  0
LINE
  8
0
 10
-135.063
 20
808.132
 11
-135.063
 21
809.868
  0
LINE
  8
0
 10
-135.063
 20
809.868
 11
-133.707
 21
810.95
  0
LINE
  8
0
 10
-133.707
 20
810.95
 11
-132.015
 21
810.564
  0
LINE
  8
0
 10
-132.015
 20
810.564
 11
-131.262
 21
809
  0
LINE
  8
0
 10
-131.262
 20
809
 11
-132.015
 21
807.436
  0
LINE
  8
0
 10
-132.015
 20
807.436
 11
-133.707
 21
807.05
  0
LINE
  8
0
 10
-133.707
 20
807.05
 11
-135.063
 21
808.132
  0
LINE
  8
0
 10
31.0031
 20
791.663
 11
36.441
 21
794.198
  0
LINE
  8
0
 10
36.441
 20
794.198
 11
44.8934
 21
776.072
  0
LINE
  8
0
 10
44.8934
 20
776.072
 11
39.4555
 21
773.537
  0
LINE
  8
0
 10
39.4555
 20
773.537
 11
31.0031
 21
791.663
  0
LINE
  8
0
 10
-210
 20
752
 11
-210
 21
772
  0
LINE
  8
0
 10
-210
 20
772
 11
-204
 21
772
  0
LINE
  8
0
 10
-204
 20
772
 11
-204
 21
752
  0
LINE
  8
0
 10
-204
 20
752
 11
-210
 21
752
  0
LINE
  8
0
 10
47.9079
 20
755.41
 11
53.3457
 21
757.946
  0
LINE
  8
0
 10
53.3457
 20
757.946
 11
61.7981
 21
739.82
  0
LINE
  8
0
 10
61.7981
 20
739.82
 11
56.3602
 21
737.284
  0
LINE
  8
0
 10
56.3602
 20
737.284
 11
47.9079
 21
755.41
  0
LINE
  8
0
 10
-207.868
 20
740.198
 11
-208.95
 21
741.555
  0
LINE
  8
0
 10
-208.95
 20
741.555
 11
-208.564
 21
743.247
  0
LINE
  8
0
 10
-208.564
 20
743.247
 11
-207
 21
744
  0
LINE
  8
0
 10
-207
 20
744
 11
-205.436
 21
743.247
  0
LINE
  8
0
 10
-205.436
 20
743.247
 11
-205.05
 21
741.555
  0
LINE
  8
0
 10
-205.05
 20
741.555
 11
-206.132
 21
740.198
  0
LINE
  8
0
 10
-206.132
 20
740.198
 11
-207.868
 21
740.198
  0
LINE
  8
0
 10
-210
 20
712
 11
-210
 21
732
  0
LINE
  8
0
 10
-210
 20
732
 11
-204
 21
732
  0
LINE
  8
0
 10
-204
 20
732
 11
-204
 21
712
  0
LINE
  8
0
 10
-204
 20
712
 11
-210
 21
712
  0
LINE
  8
0
 10
61.7263
 20
728.262
 11
61.3612
 21
729.958
  0
LINE
  8
0
 10
61.3612
 20
729.958
 11
62.4601
 21
731.302
  0
LINE
  8
0
 10
62.4601
 20
731.302
 11
64.1955
 21
731.28
  0
LINE
  8
0
 10
64.1955
 20
731.28
 11
65.2606
 21
729.91
  0
LINE
  8
0
 10
65.2606
 20
729.91
 11
64.8534
 21
728.223
  0
LINE
  8
0
 10
64.8534
 20
728.223
 11
63.2804
 21
727.489
  0
LINE
  8
0
 10
63.2804
 20
727.489
 11
61.7263
 21
728.262
  0
LINE
  8
0
 10
64.8126
 20
719.158
 11
70.2505
 21
721.694
  0
LINE
  8
0
 10
70.2505
 20
721.694
 11
78.7028
 21
703.568
  0
LINE
  8
0
 10
78.7028
 20
703.568
 11
73.265
 21
701.032
  0
LINE
  8
0
 10
73.265
 20
701.032
 11
64.8126
 21
719.158
  0
LINE
  8
0
 10
-210
 20
672
 11
-210
 21
692
  0
LINE
  8
0
 10
-210
 20
692
 11
-204
 21
692
  0
LINE
  8
0
 10
-204
 20
692
 11
-204
 21
672
  0
LINE
  8
0
 10
-204
 20
672
 11
-210
 21
672
  0
LINE
  8
0
 10
-81.3957
 20
677.095
 11
-83.0734
 21
677.93
  0
LINE
  8
0
 10
-83.0734
 20
677.93
 11
-84.3361
 21
679.315
  0
LINE
  8
0
 10
-84.3361
 20
679.315
 11
-85.0132
 21
681.063
  0
LINE
  8
0
 10
-85.0132
 20
681.063
 11
-85.0132
 21
682.937
  0
LINE
  8
0
 10
-85.0132
 20
682.937
 11
-84.3361
 21
684.685
  0
LINE
  8
0
 10
-84.3361
 20
684.685
 11
-83.0734
 21
686.07
  0
LINE
  8
0
 10
-83.0734
 20
686.07
 11
-81.3957
 21
686.905
  0
LINE
  8
0
 10
-81.3957
 20
686.905
 11
-79.5294
 21
687.078
  0
LINE
  8
0
 10
-79.5294
 20
687.078
 11
-77.7267
 21
686.565
  0
LINE
  8
0
 10
-77.7267
 20
686.565
 11
-76.231
 21
685.436
  0
LINE
  8
0
 10
-76.231
 20
685.436
 11
-75.2444
 21
683.842
  0
LINE
  8
0
 10
-75.2444
 20
683.842
 11
-74.9
 21
682
  0
LINE
  8
0
 10
-74.9
 20
682
 11
-75.2444
 21
680.158
  0
LINE
  8
0
 10
-75.2444
 20
680.158
 11
-76.231
 21
678.564
  0
LINE
  8
0
 10
-76.231
 20
678.564
 11
-77.7267
 21
677.435
  0
LINE
  8
0
 10
-77.7267
 20
677.435
 11
-79.5294
 21
676.922
  0
LINE
  8
0
 10
-79.5294
 20
676.922
 11
-81.3957
 21
677.095
  0
LINE
  8
0
 10
81.7173
 20
682.906
 11
87.1552
 21
685.442
  0
LINE
  8
0
 10
87.1552
 20
685.442
 11
95.6075
 21
667.315
  0
LINE
  8
0
 10
95.6075
 20
667.315
 11
90.1697
 21
664.78
  0
LINE
  8
0
 10
90.1697
 20
664.78
 11
81.7173
 21
682.906
  0
LINE
  8
0
 10
-210
 20
632
 11
-210
 21
652
  0
LINE
  8
0
 10
-210
 20
652
 11
-204
 21
652
  0
LINE
  8
0
 10
-204
 20
652
 11
-204
 21
632
  0
LINE
  8
0
 10
-204
 20
632
 11
-210
 21
632
  0
LINE
  8
0
 10
98.6221
 20
646.654
 11
104.06
 21
649.189
  0
LINE
  8
0
 10
104.06
 20
649.189
 11
112.512
 21
631.063
  0
LINE
  8
0
 10
112.512
 20
631.063
 11
107.074
 21
628.527
  0
LINE
  8
0
 10
107.074
 20
628.527
 11
98.6221
 21
646.654
  0
LINE
  8
0
 10
115.527
 20
610.401
 11
120.965
 21
612.937
  0
LINE
  8
0
 10
120.965
 20
612.937
 11
129.417
 21
594.811
  0
LINE
  8
0
 10
129.417
 20
594.811
 11
123.979
 21
592.275
  0
LINE
  8
0
 10
123.979
 20
592.275
 11
115.527
 21
610.401
  0
LINE
  8
0
 10
-210
 20
592
 11
-210
 21
612
  0
LINE
  8
0
 10
-210
 20
612
 11
-204
 21
612
  0
LINE
  8
0
 10
-204
 20
612
 11
-204
 21
592
  0
LINE
  8
0
 10
-204
 20
592
 11
-210
 21
592
  0
LINE
  8
0
 10
132.432
 20
574.149
 11
137.869
 21
576.685
  0
LINE
  8
0
 10
137.869
 20
576.685
 11
146.322
 21
558.558
  0
LINE
  8
0
 10
146.322
 20
558.558
 11
140.884
 21
556.023
  0
LINE
  8
0
 10
140.884
 20
556.023
 11
132.432
 21
574.149
  0
LINE
  8
0
 10
-210
 20
552
 11
-210
 21
572
  0
LINE
  8
0
 10
-210
 20
572
 11
-204
 21
572
  0
LINE
  8
0
 10
-204
 20
572
 11
-204
 21
552
  0
LINE
  8
0
 10
-204
 20
552
 11
-210
 21
552
  0
LINE
  8
0
 10
149.336
 20
537.897
 11
154.774
 21
540.432
  0
LINE
  8
0
 10
154.774
 20
540.432
 11
163.226
 21
522.306
  0
LINE
  8
0
 10
163.226
 20
522.306
 11
157.789
 21
519.77
  0
LINE
  8
0
 10
157.789
 20
519.77
 11
149.336
 21
537.897
  0
LINE
  8
0
 10
-210
 20
512
 11
-210
 21
532
  0
LINE
  8
0
 10
-210
 20
532
 11
-204
 21
532
  0
LINE
  8
0
 10
-204
 20
532
 11
-204
 21
512
  0
LINE
  8
0
 10
-204
 20
512
 11
-210
 21
512
  0
LINE
  8
0
 10
163.155
 20
510.748
 11
162.79
 21
512.445
  0
LINE
  8
0
 10
162.79
 20
512.445
 11
163.888
 21
513.788
  0
LINE
  8
0
 10
163.888
 20
513.788
 11
165.624
 21
513.766
  0
LINE
  8
0
 10
165.624
 20
513.766
 11
166.689
 21
512.396
  0
LINE
  8
0
 10
166.689
 20
512.396
 11
166.282
 21
510.709
  0
LINE
  8
0
 10
166.282
 20
510.709
 11
164.709
 21
509.975
  0
LINE
  8
0
 10
164.709
 20
509.975
 11
163.155
 21
510.748
  0
LINE
  8
0
 10
166.241
 20
501.644
 11
171.679
 21
504.18
  0
LINE
  8
0
 10
171.679
 20
504.18
 11
180.131
 21
486.054
  0
LINE
  8
0
 10
180.131
 20
486.054
 11
174.693
 21
483.518
  0
LINE
  8
0
 10
174.693
 20
483.518
 11
166.241
 21
501.644
  0
LINE
  8
0
 10
-207.868
 20
500.198
 11
-208.95
 21
501.555
  0
LINE
  8
0
 10
-208.95
 20
501.555
 11
-208.564
 21
503.247
  0
LINE
  8
0
 10
-208.564
 20
503.247
 11
-207
 21
504
  0
LINE
  8
0
 10
-207
 20
504
 11
-205.436
 21
503.247
  0
LINE
  8
0
 10
-205.436
 20
503.247
 11
-205.05
 21
501.555
  0
LINE
  8
0
 10
-205.05
 20
501.555
 11
-206.132
 21
500.198
  0
LINE
  8
0
 10
-206.132
 20
500.198
 11
-207.868
 21
500.198
  0
LINE
  8
0
 10
-210
 20
472
 11
-210
 21
492
  0
LINE
  8
0
 10
-210
 20
492
 11
-204
 21
492
  0
LINE
  8
0
 10
-204
 20
492
 11
-204
 21
472
  0
LINE
  8
0
 10
-204
 20
472
 11
-210
 21
472
  0
LINE
  8
0
 10
183.146
 20
465.392
 11
188.584
 21
467.928
  0
LINE
  8
0
 10
188.584
 20
467.928
 11
197.036
 21
449.802
  0
LINE
  8
0
 10
197.036
 20
449.802
 11
191.598
 21
447.266
  0
LINE
  8
0
 10
191.598
 20
447.266
 11
183.146
 21
465.392
  0
LINE
  8
0
 10
-210
 20
432
 11
-210
 21
452
  0
LINE
  8
0
 10
-210
 20
452
 11
-204
 21
452
  0
LINE
  8
0
 10
-204
 20
452
 11
-204
 21
432
  0
LINE
  8
0
 10
-204
 20
432
 11
-210
 21
432
  0
LINE
  8
0
 10
-606
 20
470
 11
-605.563
 21
474.158
  0
LINE
  8
0
 10
-605.563
 20
474.158
 11
-604.271
 21
478.135
  0
LINE
  8
0
 10
-604.271
 20
478.135
 11
-602.18
 21
481.756
  0
LINE
  8
0
 10
-602.18
 20
481.756
 11
-599.383
 21
484.863
  0
LINE
  8
0
 10
-599.383
 20
484.863
 11
-596
 21
487.32
  0
LINE
  8
0
 10
-596
 20
487.32
 11
-592.18
 21
489.021
  0
LINE
  8
0
 10
-592.18
 20
489.021
 11
-588.091
 21
489.89
  0
LINE
  8
0
 10
-588.091
 20
489.89
 11
-343.909
 21
489.89
  0
LINE
  8
0
 10
-343.909
 20
489.89
 11
-339.82
 21
489.021
  0
LINE
  8
0
 10
-339.82
 20
489.021
 11
-336
 21
487.32
  0
LINE
  8
0
 10
-336
 20
487.32
 11
-332.617
 21
484.863
  0
LINE
  8
0
 10
-332.617
 20
484.863
 11
-329.82
 21
481.756
  0
LINE
  8
0
 10
-329.82
 20
481.756
 11
-327.729
 21
478.135
  0
LINE
  8
0
 10
-327.729
 20
478.135
 11
-326.437
 21
474.158
  0
LINE
  8
0
 10
-326.437
 20
474.158
 11
-326
 21
470
  0
LINE
  8
0
 10
-326
 20
470
 11
-326
 21
151.185
  0
LINE
  8
0
 10
-326
 20
151.185
 11
-246
 21
151.185
  0
LINE
  8
0
 10
-246
 20
151.185
 11
-246
 21
159.324
  0
LINE
  8
0
 10
-246
 20
159.324
 11
-252
 21
159.324
  0
LINE
  8
0
 10
-252
 20
159.324
 11
-252
 21
179.324
  0
LINE
  8
0
 10
-252
 20
179.324
 11
-246
 21
179.324
  0
LINE
  8
0
 10
-246
 20
179.324
 11
-246
 21
199.324
  0
LINE
  8
0
 10
-246
 20
199.324
 11
-252
 21
199.324
  0
LINE
  8
0
 10
-252
 20
199.324
 11
-252
 21
219.324
  0
LINE
  8
0
 10
-252
 20
219.324
 11
-246
 21
219.324
  0
LINE
  8
0
 10
-246
 20
219.324
 11
-246
 21
239.324
  0
LINE
  8
0
 10
-246
 20
239.324
 11
-252
 21
239.324
  0
LINE
  8
0
 10
-252
 20
239.324
 11
-252
 21
247.324
  0
LINE
  8
0
 10
-252
 20
247.324
 11
-268.5
 21
247.324
  0
LINE
  8
0
 10
-268.5
 20
247.324
 11
-268.5
 21
245.824
  0
LINE
  8
0
 10
-268.5
 20
245.824
 11
-272
 21
245.824
  0
LINE
  8
0
 10
-272
 20
245.824
 11
-272
 21
247.324
  0
LINE
  8
0
 10
-272
 20
247.324
 11
-278.5
 21
247.324
  0
LINE
  8
0
 10
-278.5
 20
247.324
 11
-278.5
 21
251.324
  0
LINE
  8
0
 10
-278.5
 20
251.324
 11
-272
 21
251.324
  0
LINE
  8
0
 10
-272
 20
251.324
 11
-272
 21
252.824
  0
LINE
  8
0
 10
-272
 20
252.824
 11
-268.5
 21
252.824
  0
LINE
  8
0
 10
-268.5
 20
252.824
 11
-268.5
 21
251.324
  0
LINE
  8
0
 10
-268.5
 20
251.324
 11
-252
 21
251.324
  0
LINE
  8
0
 10
-252
 20
251.324
 11
-252
 21
259.324
  0
LINE
  8
0
 10
-252
 20
259.324
 11
-246
 21
259.324
  0
LINE
  8
0
 10
-246
 20
259.324
 11
-246
 21
279.324
  0
LINE
  8
0
 10
-246
 20
279.324
 11
-252
 21
279.324
  0
LINE
  8
0
 10
-252
 20
279.324
 11
-252
 21
299.324
  0
LINE
  8
0
 10
-252
 20
299.324
 11
-246
 21
299.324
  0
LINE
  8
0
 10
-246
 20
299.324
 11
-246
 21
319.324
  0
LINE
  8
0
 10
-246
 20
319.324
 11
-252
 21
319.324
  0
LINE
  8
0
 10
-252
 20
319.324
 11
-252
 21
339.324
  0
LINE
  8
0
 10
-252
 20
339.324
 11
-246
 21
339.324
  0
LINE
  8
0
 10
-246
 20
339.324
 11
-246
 21
359.324
  0
LINE
  8
0
 10
-246
 20
359.324
 11
-252
 21
359.324
  0
LINE
  8
0
 10
-252
 20
359.324
 11
-252
 21
379.324
  0
LINE
  8
0
 10
-252
 20
379.324
 11
-246
 21
379.324
  0
LINE
  8
0
 10
-246
 20
379.324
 11
-246
 21
399.324
  0
LINE
  8
0
 10
-246
 20
399.324
 11
-252
 21
399.324
  0
LINE
  8
0
 10
-252
 20
399.324
 11
-252
 21
419.324
  0
LINE
  8
0
 10
-252
 20
419.324
 11
-246
 21
419.324
  0
LINE
  8
0
 10
-246
 20
419.324
 11
-246
 21
439.324
  0
LINE
  8
0
 10
-246
 20
439.324
 11
-252
 21
439.324
  0
LINE
  8
0
 10
-252
 20
439.324
 11
-252
 21
459.324
  0
LINE
  8
0
 10
-252
 20
459.324
 11
-246
 21
459.324
  0
LINE
  8
0
 10
-246
 20
459.324
 11
-246
 21
479.324
  0
LINE
  8
0
 10
-246
 20
479.324
 11
-252
 21
479.324
  0
LINE
  8
0
 10
-252
 20
479.324
 11
-252
 21
487.324
  0
LINE
  8
0
 10
-252
 20
487.324
 11
-268.5
 21
487.324
  0
LINE
  8
0
 10
-268.5
 20
487.324
 11
-268.5
 21
485.824
  0
LINE
  8
0
 10
-268.5
 20
485.824
 11
-272
 21
485.824
  0
LINE
  8
0
 10
-272
 20
485.824
 11
-272
 21
487.324
  0
LINE
  8
0
 10
-272
 20
487.324
 11
-278.5
 21
487.324
  0
LINE
  8
0
 10
-278.5
 20
487.324
 11
-278.5
 21
491.324
  0
LINE
  8
0
 10
-278.5
 20
491.324
 11
-272
 21
491.324
  0
LINE
  8
0
 10
-272
 20
491.324
 11
-272
 21
492.824
  0
LINE
  8
0
 10
-272
 20
492.824
 11
-268.5
 21
492.824
  0
LINE
  8
0
 10
-268.5
 20
492.824
 11
-268.5
 21
491.324
  0
LINE
  8
0
 10
-268.5
 20
491.324
 11
-252
 21
491.324
  0
LINE
  8
0
 10
-252
 20
491.324
 11
-252
 21
499.324
  0
LINE
  8
0
 10
-252
 20
499.324
 11
-246
 21
499.324
  0
LINE
  8
0
 10
-246
 20
499.324
 11
-246
 21
519.324
  0
LINE
  8
0
 10
-246
 20
519.324
 11
-252
 21
519.324
  0
LINE
  8
0
 10
-252
 20
519.324
 11
-252
 21
539.324
  0
LINE
  8
0
 10
-252
 20
539.324
 11
-246
 21
539.324
  0
LINE
  8
0
 10
-246
 20
539.324
 11
-246
 21
559.324
  0
LINE
  8
0
 10
-246
 20
559.324
 11
-252
 21
559.324
  0
LINE
  8
0
 10
-252
 20
559.324
 11
-252
 21
579.324
  0
LINE
  8
0
 10
-252
 20
579.324
 11
-246
 21
579.324
  0
LINE
  8
0
 10
-246
 20
579.324
 11
-246
 21
592.536
  0
LINE
  8
0
 10
-246
 20
592.536
 11
-686
 21
592.536
  0
LINE
  8
0
 10
-686
 20
592.536
 11
-686
 21
579.324
  0
LINE
  8
0
 10
-686
 20
579.324
 11
-680
 21
579.324
  0
LINE
  8
0
 10
-680
 20
579.324
 11
-680
 21
559.324
  0
LINE
  8
0
 10
-680
 20
559.324
 11
-686
 21
559.324
  0
LINE
  8
0
 10
-686
 20
559.324
 11
-686
 21
539.324
  0
LINE
  8
0
 10
-686
 20
539.324
 11
-680
 21
539.324
  0
LINE
  8
0
 10
-680
 20
539.324
 11
-680
 21
519.324
  0
LINE
  8
0
 10
-680
 20
519.324
 11
-686
 21
519.324
  0
LINE
  8
0
 10
-686
 20
519.324
 11
-686
 21
499.324
  0
LINE
  8
0
 10
-686
 20
499.324
 11
-680
 21
499.324
  0
LINE
  8
0
 10
-680
 20
499.324
 11
-680
 21
491.324
  0
LINE
  8
0
 10
-680
 20
491.324
 11
-663.5
 21
491.324
  0
LINE
  8
0
 10
-663.5
 20
491.324
 11
-663.5
 21
492.824
  0
LINE
  8
0
 10
-663.5
 20
492.824
 11
-660
 21
492.824
  0
LINE
  8
0
 10
-660
 20
492.824
 11
-660
 21
491.324
  0
LINE
  8
0
 10
-660
 20
491.324
 11
-653.5
 21
491.324
  0
LINE
  8
0
 10
-653.5
 20
491.324
 11
-653.5
 21
487.324
  0
LINE
  8
0
 10
-653.5
 20
487.324
 11
-660
 21
487.324
  0
LINE
  8
0
 10
-660
 20
487.324
 11
-660
 21
485.824
  0
LINE
  8
0
 10
-660
 20
485.824
 11
-663.5
 21
485.824
  0
LINE
  8
0
 10
-663.5
 20
485.824
 11
-663.5
 21
487.324
  0
LINE
  8
0
 10
-663.5
 20
487.324
 11
-680
 21
487.324
  0
LINE
  8
0
 10
-680
 20
487.324
 11
-680
 21
479.324
  0
LINE
  8
0
 10
-680
 20
479.324
 11
-686
 21
479.324
  0
LINE
  8
0
 10
-686
 20
479.324
 11
-686
 21
459.324
  0
LINE
  8
0
 10
-686
 20
459.324
 11
-680
 21
459.324
  0
LINE
  8
0
 10
-680
 20
459.324
 11
-680
 21
439.324
  0
LINE
  8
0
 10
-680
 20
439.324
 11
-686
 21
439.324
  0
LINE
  8
0
 10
-686
 20
439.324
 11
-686
 21
419.324
  0
LINE
  8
0
 10
-686
 20
419.324
 11
-680
 21
419.324
  0
LINE
  8
0
 10
-680
 20
419.324
 11
-680
 21
399.324
  0
LINE
  8
0
 10
-680
 20
399.324
 11
-686
 21
399.324
  0
LINE
  8
0
 10
-686
 20
399.324
 11
-686
 21
379.324
  0
LINE
  8
0
 10
-686
 20
379.324
 11
-680
 21
379.324
  0
LINE
  8
0
 10
-680
 20
379.324
 11
-680
 21
359.324
  0
LINE
  8
0
 10
-680
 20
359.324
 11
-686
 21
359.324
  0
LINE
  8
0
 10
-686
 20
359.324
 11
-686
 21
339.324
  0
LINE
  8
0
 10
-686
 20
339.324
 11
-680
 21
339.324
  0
LINE
  8
0
 10
-680
 20
339.324
 11
-680
 21
319.324
  0
LINE
  8
0
 10
-680
 20
319.324
 11
-686
 21
319.324
  0
LINE
  8
0
 10
-686
 20
319.324
 11
-686
 21
299.324
  0
LINE
  8
0
 10
-686
 20
299.324
 11
-680
 21
299.324
  0
LINE
  8
0
 10
-680
 20
299.324
 11
-680
 21
279.324
  0
LINE
  8
0
 10
-680
 20
279.324
 11
-686
 21
279.324
  0
LINE
  8
0
 10
-686
 20
279.324
 11
-686
 21
259.324
  0
LINE
  8
0
 10
-686
 20
259.324
 11
-680
 21
259.324
  0
LINE
  8
0
 10
-680
 20
259.324
 11
-680
 21
251.324
  0
LINE
  8
0
 10
-680
 20
251.324
 11
-663.5
 21
251.324
  0
LINE
  8
0
 10
-663.5
 20
251.324
 11
-663.5
 21
252.824
  0
LINE
  8
0
 10
-663.5
 20
252.824
 11
-660
 21
252.824
  0
LINE
  8
0
 10
-660
 20
252.824
 11
-660
 21
251.324
  0
LINE
  8
0
 10
-660
 20
251.324
 11
-653.5
 21
251.324
  0
LINE
  8
0
 10
-653.5
 20
251.324
 11
-653.5
 21
247.324
  0
LINE
  8
0
 10
-653.5
 20
247.324
 11
-660
 21
247.324
  0
LINE
  8
0
 10
-660
 20
247.324
 11
-660
 21
245.824
  0
LINE
  8
0
 10
-660
 20
245.824
 11
-663.5
 21
245.824
  0
LINE
  8
0
 10
-663.5
 20
245.824
 11
-663.5
 21
247.324
  0
LINE
  8
0
 10
-663.5
 20
247.324
 11
-680
 21
247.324
  0
LINE
  8
0
 10
-680
 20
247.324
 11
-680
 21
239.324
  0
LINE
  8
0
 10
-680
 20
239.324
 11
-686
 21
239.324
  0
LINE
  8
0
 10
-686
 20
239.324
 11
-686
 21
219.324
  0
LINE
  8
0
 10
-686
 20
219.324
 11
-680
 21
219.324
  0
LINE
  8
0
 10
-680
 20
219.324
 11
-680
 21
199.324
  0
LINE
  8
0
 10
-680
 20
199.324
 11
-686
 21
199.324
  0
LINE
  8
0
 10
-686
 20
199.324
 11
-686
 21
179.324
  0
LINE
  8
0
 10
-686
 20
179.324
 11
-680
 21
179.324
  0
LINE
  8
0
 10
-680
 20
179.324
 11
-680
 21
159.324
  0
LINE
  8
0
 10
-680
 20
159.324
 11
-686
 21
159.324
  0
LINE
  8
0
 10
-686
 20
159.324
 11
-686
 21
151.185
  0
LINE
  8
0
 10
-686
 20
151.185
 11
-606
 21
151.185
  0
LINE
  8
0
 10
-606
 20
151.185
 11
-606
 21
470
  0
LINE
  8
0
 10
-556
 20
6
 11
-536
 21
6
  0
LINE
  8
0
 10
-536
 20
6
 11
-536
 21
0
  0
LINE
  8
0
 10
-536
 20
0
 11
-516
 21
0
  0
LINE
  8
0
 10
-516
 20
0
 11
-516
 21
6.00002
  0
LINE
  8
0
 10
-516
 20
6.00002
 11
-508
 21
6.00002
  0
LINE
  8
0
 10
-508
 20
6.00002
 11
-508
 21
22.5
  0
LINE
  8
0
 10
-508
 20
22.5
 11
-509.5
 21
22.5
  0
LINE
  8
0
 10
-509.5
 20
22.5
 11
-509.5
 21
26
  0
LINE
  8
0
 10
-509.5
 20
26
 11
-508
 21
26
  0
LINE
  8
0
 10
-508
 20
26
 11
-508
 21
32.5
  0
LINE
  8
0
 10
-508
 20
32.5
 11
-504
 21
32.5
  0
LINE
  8
0
 10
-504
 20
32.5
 11
-504
 21
26
  0
LINE
  8
0
 10
-504
 20
26
 11
-502.5
 21
26
  0
LINE
  8
0
 10
-502.5
 20
26
 11
-502.5
 21
22.5
  0
LINE
  8
0
 10
-502.5
 20
22.5
 11
-504
 21
22.5
  0
LINE
  8
0
 10
-504
 20
22.5
 11
-504
 21
6.00002
  0
LINE
  8
0
 10
-504
 20
6.00002
 11
-496
 21
6.00002
  0
LINE
  8
0
 10
-496
 20
6.00002
 11
-496
 21
0
  0
LINE
  8
0
 10
-496
 20
0
 11
-476
 21
0
  0
LINE
  8
0
 10
-476
 20
0
 11
-476
 21
6.00002
  0
LINE
  8
0
 10
-476
 20
6.00002
 11
-456
 21
6.00002
  0
LINE
  8
0
 10
-456
 20
6.00002
 11
-456
 21
0
  0
LINE
  8
0
 10
-456
 20
0
 11
-436
 21
0
  0
LINE
  8
0
 10
-436
 20
0
 11
-436
 21
6.00002
  0
LINE
  8
0
 10
-436
 20
6.00002
 11
-428
 21
6.00002
  0
LINE
  8
0
 10
-428
 20
6.00002
 11
-428
 21
22.5
  0
LINE
  8
0
 10
-428
 20
22.5
 11
-429.5
 21
22.5
  0
LINE
  8
0
 10
-429.5
 20
22.5
 11
-429.5
 21
26
  0
LINE
  8
0
 10
-429.5
 20
26
 11
-428
 21
26
  0
LINE
  8
0
 10
-428
 20
26
 11
-428
 21
32.5
  0
LINE
  8
0
 10
-428
 20
32.5
 11
-424
 21
32.5
  0
LINE
  8
0
 10
-424
 20
32.5
 11
-424
 21
26
  0
LINE
  8
0
 10
-424
 20
26
 11
-422.5
 21
26
  0
LINE
  8
0
 10
-422.5
 20
26
 11
-422.5
 21
22.5
  0
LINE
  8
0
 10
-422.5
 20
22.5
 11
-424
 21
22.5
  0
LINE
  8
0
 10
-424
 20
22.5
 11
-424
 21
6.00002
  0
LINE
  8
0
 10
-424
 20
6.00002
 11
-416
 21
6.00002
  0
LINE
  8
0
 10
-416
 20
6.00002
 11
-416
 21
0
  0
LINE
  8
0
 10
-416
 20
0
 11
-396
 21
0
  0
LINE
  8
0
 10
-396
 20
0
 11
-396
 21
6
  0
LINE
  8
0
 10
-396
 20
6
 11
-376
 21
6
  0
LINE
  8
0
 10
-376
 20
6
 11
-376
 21
0
  0
LINE
  8
0
 10
-376
 20
0
 11
-356
 21
0
  0
LINE
  8
0
 10
-356
 20
0
 11
-356
 21
6
  0
LINE
  8
0
 10
-356
 20
6
 11
-349.262
 21
6
  0
LINE
  8
0
 10
-349.262
 20
6
 11
-349.262
 21
9.99998
  0
LINE
  8
0
 10
-349.262
 20
9.99998
 11
-355.262
 21
9.99998
  0
LINE
  8
0
 10
-355.262
 20
9.99998
 11
-355.262
 21
30
  0
LINE
  8
0
 10
-355.262
 20
30
 11
-349.262
 21
30
  0
LINE
  8
0
 10
-349.262
 20
30
 11
-349.262
 21
50
  0
LINE
  8
0
 10
-349.262
 20
50
 11
-355.262
 21
50
  0
LINE
  8
0
 10
-355.262
 20
50
 11
-355.262
 21
70
  0
LINE
  8
0
 10
-355.262
 20
70
 11
-349.262
 21
70
  0
LINE
  8
0
 10
-349.262
 20
70
 11
-349.262
 21
90
  0
LINE
  8
0
 10
-349.262
 20
90
 11
-355.262
 21
90
  0
LINE
  8
0
 10
-355.262
 20
90
 11
-355.262
 21
98
  0
LINE
  8
0
 10
-355.262
 20
98
 11
-371.762
 21
98
  0
LINE
  8
0
 10
-371.762
 20
98
 11
-371.762
 21
96.5
  0
LINE
  8
0
 10
-371.762
 20
96.5
 11
-375.262
 21
96.5
  0
LINE
  8
0
 10
-375.262
 20
96.5
 11
-375.262
 21
98
  0
LINE
  8
0
 10
-375.262
 20
98
 11
-381.762
 21
98
  0
LINE
  8
0
 10
-381.762
 20
98
 11
-381.762
 21
102
  0
LINE
  8
0
 10
-381.762
 20
102
 11
-375.262
 21
102
  0
LINE
  8
0
 10
-375.262
 20
102
 11
-375.262
 21
103.5
  0
LINE
  8
0
 10
-375.262
 20
103.5
 11
-371.762
 21
103.5
  0
LINE
  8
0
 10
-371.762
 20
103.5
 11
-371.762
 21
102
  0
LINE
  8
0
 10
-371.762
 20
102
 11
-355.262
 21
102
  0
LINE
  8
0
 10
-355.262
 20
102
 11
-355.262
 21
110
  0
LINE
  8
0
 10
-355.262
 20
110
 11
-349.262
 21
110
  0
LINE
  8
0
 10
-349.262
 20
110
 11
-349.262
 21
130
  0
LINE
  8
0
 10
-349.262
 20
130
 11
-355.262
 21
130
  0
LINE
  8
0
 10
-355.262
 20
130
 11
-355.262
 21
150
  0
LINE
  8
0
 10
-355.262
 20
150
 11
-349.262
 21
150
  0
LINE
  8
0
 10
-349.262
 20
150
 11
-349.262
 21
170
  0
LINE
  8
0
 10
-349.262
 20
170
 11
-355.262
 21
170
  0
LINE
  8
0
 10
-355.262
 20
170
 11
-355.262
 21
190
  0
LINE
  8
0
 10
-355.262
 20
190
 11
-349.262
 21
190
  0
LINE
  8
0
 10
-349.262
 20
190
 11
-349.262
 21
210
  0
LINE
  8
0
 10
-349.262
 20
210
 11
-355.262
 21
210
  0
LINE
  8
0
 10
-355.262
 20
210
 11
-355.262
 21
230
  0
LINE
  8
0
 10
-355.262
 20
230
 11
-349.262
 21
230
  0
LINE
  8
0
 10
-349.262
 20
230
 11
-349.262
 21
250
  0
LINE
  8
0
 10
-349.262
 20
250
 11
-355.262
 21
250
  0
LINE
  8
0
 10
-355.262
 20
250
 11
-355.262
 21
270
  0
LINE
  8
0
 10
-355.262
 20
270
 11
-349.262
 21
270
  0
LINE
  8
0
 10
-349.262
 20
270
 11
-349.262
 21
290
  0
LINE
  8
0
 10
-349.262
 20
290
 11
-355.262
 21
290
  0
LINE
  8
0
 10
-355.262
 20
290
 11
-355.262
 21
310
  0
LINE
  8
0
 10
-355.262
 20
310
 11
-349.262
 21
310
  0
LINE
  8
0
 10
-349.262
 20
310
 11
-349.262
 21
330
  0
LINE
  8
0
 10
-349.262
 20
330
 11
-355.262
 21
330
  0
LINE
  8
0
 10
-355.262
 20
330
 11
-355.262
 21
338
  0
LINE
  8
0
 10
-355.262
 20
338
 11
-371.762
 21
338
  0
LINE
  8
0
 10
-371.762
 20
338
 11
-371.762
 21
336.5
  0
LINE
  8
0
 10
-371.762
 20
336.5
 11
-375.262
 21
336.5
  0
LINE
  8
0
 10
-375.262
 20
336.5
 11
-375.262
 21
338
  0
LINE
  8
0
 10
-375.262
 20
338
 11
-381.762
 21
338
  0
LINE
  8
0
 10
-381.762
 20
338
 11
-381.762
 21
342
  0
LINE
  8
0
 10
-381.762
 20
342
 11
-375.262
 21
342
  0
LINE
  8
0
 10
-375.262
 20
342
 11
-375.262
 21
343.5
  0
LINE
  8
0
 10
-375.262
 20
343.5
 11
-371.762
 21
343.5
  0
LINE
  8
0
 10
-371.762
 20
343.5
 11
-371.762
 21
342
  0
LINE
  8
0
 10
-371.762
 20
342
 11
-355.262
 21
342
  0
LINE
  8
0
 10
-355.262
 20
342
 11
-355.262
 21
350
  0
LINE
  8
0
 10
-355.262
 20
350
 11
-349.262
 21
350
  0
LINE
  8
0
 10
-349.262
 20
350
 11
-349.262
 21
370
  0
LINE
  8
0
 10
-349.262
 20
370
 11
-355.262
 21
370
  0
LINE
  8
0
 10
-355.262
 20
370
 11
-355.262
 21
390
  0
LINE
  8
0
 10
-355.262
 20
390
 11
-349.262
 21
390
  0
LINE
  8
0
 10
-349.262
 20
390
 11
-349.262
 21
410
  0
LINE
  8
0
 10
-349.262
 20
410
 11
-355.262
 21
410
  0
LINE
  8
0
 10
-355.262
 20
410
 11
-355.262
 21
430
  0
LINE
  8
0
 10
-355.262
 20
430
 11
-349.262
 21
430
  0
LINE
  8
0
 10
-349.262
 20
430
 11
-349.262
 21
434
  0
LINE
  8
0
 10
-349.262
 20
434
 11
-356
 21
434
  0
LINE
  8
0
 10
-356
 20
434
 11
-356
 21
440
  0
LINE
  8
0
 10
-356
 20
440
 11
-376
 21
440
  0
LINE
  8
0
 10
-376
 20
440
 11
-376
 21
434
  0
LINE
  8
0
 10
-376
 20
434
 11
-396
 21
434
  0
LINE
  8
0
 10
-396
 20
434
 11
-396
 21
440
  0
LINE
  8
0
 10
-396
 20
440
 11
-416
 21
440
  0
LINE
  8
0
 10
-416
 20
440
 11
-416
 21
434
  0
LINE
  8
0
 10
-416
 20
434
 11
-424
 21
434
  0
LINE
  8
0
 10
-424
 20
434
 11
-424
 21
417.5
  0
LINE
  8
0
 10
-424
 20
417.5
 11
-422.5
 21
417.5
  0
LINE
  8
0
 10
-422.5
 20
417.5
 11
-422.5
 21
414
  0
LINE
  8
0
 10
-422.5
 20
414
 11
-424
 21
414
  0
LINE
  8
0
 10
-424
 20
414
 11
-424
 21
407.5
  0
LINE
  8
0
 10
-424
 20
407.5
 11
-428
 21
407.5
  0
LINE
  8
0
 10
-428
 20
407.5
 11
-428
 21
414
  0
LINE
  8
0
 10
-428
 20
414
 11
-429.5
 21
414
  0
LINE
  8
0
 10
-429.5
 20
414
 11
-429.5
 21
417.5
  0
LINE
  8
0
 10
-429.5
 20
417.5
 11
-428
 21
417.5
  0
LINE
  8
0
 10
-428
 20
417.5
 11
-428
 21
434
  0
LINE
  8
0
 10
-428
 20
434
 11
-436
 21
434
  0
LINE
  8
0
 10
-436
 20
434
 11
-436
 21
440
  0
LINE
  8
0
 10
-436
 20
440
 11
-456
 21
440
  0
LINE
  8
0
 10
-456
 20
440
 11
-456
 21
434
  0
LINE
  8
0
 10
-456
 20
434
 11
-476
 21
434
  0
LINE
  8
0
 10
-476
 20
434
 11
-476
 21
440
  0
LINE
  8
0
 10
-476
 20
440
 11
-496
 21
440
  0
LINE
  8
0
 10
-496
 20
440
 11
-496
 21
434
  0
LINE
  8
0
 10
-496
 20
434
 11
-504
 21
434
  0
LINE
  8
0
 10
-504
 20
434
 11
-504
 21
417.5
  0
LINE
  8
0
 10
-504
 20
417.5
 11
-502.5
 21
417.5
  0
LINE
  8
0
 10
-502.5
 20
417.5
 11
-502.5
 21
414
  0
LINE
  8
0
 10
-502.5
 20
414
 11
-504
 21
414
  0
LINE
  8
0
 10
-504
 20
414
 11
-504
 21
407.5
  0
LINE
  8
0
 10
-504
 20
407.5
 11
-508
 21
407.5
  0
LINE
  8
0
 10
-508
 20
407.5
 11
-508
 21
414
  0
LINE
  8
0
 10
-508
 20
414
 11
-509.5
 21
414
  0
LINE
  8
0
 10
-509.5
 20
414
 11
-509.5
 21
417.5
  0
LINE
  8
0
 10
-509.5
 20
417.5
 11
-508
 21
417.5
  0
LINE
  8
0
 10
-508
 20
417.5
 11
-508
 21
434
  0
LINE
  8
0
 10
-508
 20
434
 11
-516
 21
434
  0
LINE
  8
0
 10
-516
 20
434
 11
-516
 21
440
  0
LINE
  8
0
 10
-516
 20
440
 11
-536
 21
440
  0
LINE
  8
0
 10
-536
 20
440
 11
-536
 21
434
  0
LINE
  8
0
 10
-536
 20
434
 11
-556
 21
434
  0
LINE
  8
0
 10
-556
 20
434
 11
-556
 21
440
  0
LINE
  8
0
 10
-556
 20
440
 11
-576
 21
440
  0
LINE
  8
0
 10
-576
 20
440
 11
-576
 21
434
  0
LINE
  8
0
 10
-576
 20
434
 11
-582.738
 21
434
  0
LINE
  8
0
 10
-582.738
 20
434
 11
-582.738
 21
6
  0
LINE
  8
0
 10
-582.738
 20
6
 11
-576
 21
6
  0
LINE
  8
0
 10
-576
 20
6
 11
-576
 21
0
  0
LINE
  8
0
 10
-576
 20
0
 11
-556
 21
0
  0
LINE
  8
0
 10
-556
 20
0
 11
-556
 21
6
  0
LINE
  8
0
 10
582.18
 20
-19.0211
 11
586
 21
-17.3205
  0
LINE
  8
0
 10
586
 20
-17.3205
 11
589.383
 21
-14.8629
  0
LINE
  8
0
 10
589.383
 20
-14.8629
 11
592.18
 21
-11.7557
  0
LINE
  8
0
 10
592.18
 20
-11.7557
 11
594.271
 21
-8.13472
  0
LINE
  8
0
 10
594.271
 20
-8.13472
 11
595.563
 21
-4.15823
  0
LINE
  8
0
 10
595.563
 20
-4.15823
 11
596
 21
0
  0
LINE
  8
0
 10
596
 20
0
 11
680
 21
0
  0
LINE
  8
0
 10
680
 20
0
 11
680
 21
10
  0
LINE
  8
0
 10
680
 20
10
 11
686
 21
10
  0
LINE
  8
0
 10
686
 20
10
 11
686
 21
30
  0
LINE
  8
0
 10
686
 20
30
 11
680
 21
30
  0
LINE
  8
0
 10
680
 20
30
 11
680
 21
50
  0
LINE
  8
0
 10
680
 20
50
 11
686
 21
50
  0
LINE
  8
0
 10
686
 20
50
 11
686
 21
70
  0
LINE
  8
0
 10
686
 20
70
 11
680
 21
70
  0
LINE
  8
0
 10
680
 20
70
 11
680
 21
78
  0
LINE
  8
0
 10
680
 20
78
 11
663.5
 21
78
  0
LINE
  8
0
 10
663.5
 20
78
 11
663.5
 21
76.5
  0
LINE
  8
0
 10
663.5
 20
76.5
 11
660
 21
76.5
  0
LINE
  8
0
 10
660
 20
76.5
 11
660
 21
78
  0
LINE
  8
0
 10
660
 20
78
 11
653.5
 21
78
  0
LINE
  8
0
 10
653.5
 20
78
 11
653.5
 21
82
  0
LINE
  8
0
 10
653.5
 20
82
 11
660
 21
82
  0
LINE
  8
0
 10
660
 20
82
 11
660
 21
83.5
  0
LINE
  8
0
 10
660
 20
83.5
 11
663.5
 21
83.5
  0
LINE
  8
0
 10
663.5
 20
83.5
 11
663.5
 21
82
  0
LINE
  8
0
 10
663.5
 20
82
 11
680
 21
82
  0
LINE
  8
0
 10
680
 20
82
 11
680
 21
90
  0
LINE
  8
0
 10
680
 20
90
 11
686
 21
90
  0
LINE
  8
0
 10
686
 20
90
 11
686
 21
110
  0
LINE
  8
0
 10
686
 20
110
 11
680
 21
110
  0
LINE
  8
0
 10
680
 20
110
 11
680
 21
130
  0
LINE
  8
0
 10
680
 20
130
 11
686
 21
130
  0
LINE
  8
0
 10
686
 20
130
 11
686
 21
150
  0
LINE
  8
0
 10
686
 20
150
 11
680
 21
150
  0
LINE
  8
0
 10
680
 20
150
 11
680
 21
170
  0
LINE
  8
0
 10
680
 20
170
 11
686
 21
170
  0
LINE
  8
0
 10
686
 20
170
 11
686
 21
190
  0
LINE
  8
0
 10
686
 20
190
 11
680
 21
190
  0
LINE
  8
0
 10
680
 20
190
 11
680
 21
210
  0
LINE
  8
0
 10
680
 20
210
 11
686
 21
210
  0
LINE
  8
0
 10
686
 20
210
 11
686
 21
230
  0
LINE
  8
0
 10
686
 20
230
 11
680
 21
230
  0
LINE
  8
0
 10
680
 20
230
 11
680
 21
250
  0
LINE
  8
0
 10
680
 20
250
 11
686
 21
250
  0
LINE
  8
0
 10
686
 20
250
 11
686
 21
270
  0
LINE
  8
0
 10
686
 20
270
 11
680
 21
270
  0
LINE
  8
0
 10
680
 20
270
 11
680
 21
290
  0
LINE
  8
0
 10
680
 20
290
 11
686
 21
290
  0
LINE
  8
0
 10
686
 20
290
 11
686
 21
310
  0
LINE
  8
0
 10
686
 20
310
 11
680
 21
310
  0
LINE
  8
0
 10
680
 20
310
 11
680
 21
318
  0
LINE
  8
0
 10
680
 20
318
 11
663.5
 21
318
  0
LINE
  8
0
 10
663.5
 20
318
 11
663.5
 21
316.5
  0
LINE
  8
0
 10
663.5
 20
316.5
 11
660
 21
316.5
  0
LINE
  8
0
 10
660
 20
316.5
 11
660
 21
318
  0
LINE
  8
0
 10
660
 20
318
 11
653.5
 21
318
  0
LINE
  8
0
 10
653.5
 20
318
 11
653.5
 21
322
  0
LINE
  8
0
 10
653.5
 20
322
 11
660
 21
322
  0
LINE
  8
0
 10
660
 20
322
 11
660
 21
323.5
  0
LINE
  8
0
 10
660
 20
323.5
 11
663.5
 21
323.5
  0
LINE
  8
0
 10
663.5
 20
323.5
 11
663.5
 21
322
  0
LINE
  8
0
 10
663.5
 20
322
 11
680
 21
322
  0
LINE
  8
0
 10
680
 20
322
 11
680
 21
330
  0
LINE
  8
0
 10
680
 20
330
 11
686
 21
330
  0
LINE
  8
0
 10
686
 20
330
 11
686
 21
350
  0
LINE
  8
0
 10
686
 20
350
 11
680
 21
350
  0
LINE
  8
0
 10
680
 20
350
 11
680
 21
370
  0
LINE
  8
0
 10
680
 20
370
 11
686
 21
370
  0
LINE
  8
0
 10
686
 20
370
 11
686
 21
384
  0
LINE
  8
0
 10
686
 20
384
 11
676
 21
384
  0
LINE
  8
0
 10
676
 20
384
 11
676
 21
390
  0
LINE
  8
0
 10
676
 20
390
 11
680
 21
390
  0
LINE
  8
0
 10
680
 20
390
 11
680
 21
400
  0
LINE
  8
0
 10
680
 20
400
 11
252
 21
400
  0
LINE
  8
0
 10
252
 20
400
 11
252
 21
390
  0
LINE
  8
0
 10
252
 20
390
 11
256
 21
390
  0
LINE
  8
0
 10
256
 20
390
 11
256
 21
384
  0
LINE
  8
0
 10
256
 20
384
 11
246
 21
384
  0
LINE
  8
0
 10
246
 20
384
 11
246
 21
370
  0
LINE
  8
0
 10
246
 20
370
 11
252
 21
370
  0
LINE
  8
0
 10
252
 20
370
 11
252
 21
350
  0
LINE
  8
0
 10
252
 20
350
 11
246
 21
350
  0
LINE
  8
0
 10
246
 20
350
 11
246
 21
330
  0
LINE
  8
0
 10
246
 20
330
 11
252
 21
330
  0
LINE
  8
0
 10
252
 20
330
 11
252
 21
322
  0
LINE
  8
0
 10
252
 20
322
 11
268.5
 21
322
  0
LINE
  8
0
 10
268.5
 20
322
 11
268.5
 21
323.5
  0
LINE
  8
0
 10
268.5
 20
323.5
 11
272
 21
323.5
  0
LINE
  8
0
 10
272
 20
323.5
 11
272
 21
322
  0
LINE
  8
0
 10
272
 20
322
 11
278.5
 21
322
  0
LINE
  8
0
 10
278.5
 20
322
 11
278.5
 21
318
  0
LINE
  8
0
 10
278.5
 20
318
 11
272
 21
318
  0
LINE
  8
0
 10
272
 20
318
 11
272
 21
316.5
  0
LINE
  8
0
 10
272
 20
316.5
 11
268.5
 21
316.5
  0
LINE
  8
0
 10
268.5
 20
316.5
 11
268.5
 21
318
  0
LINE
  8
0
 10
268.5
 20
318
 11
252
 21
318
  0
LINE
  8
0
 10
252
 20
318
 11
252
 21
310
  0
LINE
  8
0
 10
252
 20
310
 11
246
 21
310
  0
LINE
  8
0
 10
246
 20
310
 11
246
 21
290
  0
LINE
  8
0
 10
246
 20
290
 11
252
 21
290
  0
LINE
  8
0
 10
252
 20
290
 11
252
 21
270
  0
LINE
  8
0
 10
252
 20
270
 11
246
 21
270
  0
LINE
  8
0
 10
246
 20
270
 11
246
 21
250
  0
LINE
  8
0
 10
246
 20
250
 11
252
 21
250
  0
LINE
  8
0
 10
252
 20
250
 11
252
 21
230
  0
LINE
  8
0
 10
252
 20
230
 11
246
 21
230
  0
LINE
  8
0
 10
246
 20
230
 11
246
 21
210
  0
LINE
  8
0
 10
246
 20
210
 11
252
 21
210
  0
LINE
  8
0
 10
252
 20
210
 11
252
 21
190
  0
LINE
  8
0
 10
252
 20
190
 11
246
 21
190
  0
LINE
  8
0
 10
246
 20
190
 11
246
 21
170
  0
LINE
  8
0
 10
246
 20
170
 11
252
 21
170
  0
LINE
  8
0
 10
252
 20
170
 11
252
 21
150
  0
LINE
  8
0
 10
252
 20
150
 11
246
 21
150
  0
LINE
  8
0
 10
246
 20
150
 11
246
 21
130
  0
LINE
  8
0
 10
246
 20
130
 11
252
 21
130
  0
LINE
  8
0
 10
252
 20
130
 11
252
 21
110
  0
LINE
  8
0
 10
252
 20
110
 11
246
 21
110
  0
LINE
  8
0
 10
246
 20
110
 11
246
 21
90
  0
LINE
  8
0
 10
246
 20
90
 11
252
 21
90
  0
LINE
  8
0
 10
252
 20
90
 11
252
 21
82
  0
LINE
  8
0
 10
252
 20
82
 11
268.5
 21
82
  0
LINE
  8
0
 10
268.5
 20
82
 11
268.5
 21
83.5
  0
LINE
  8
0
 10
268.5
 20
83.5
 11
272
 21
83.5
  0
LINE
  8
0
 10
272
 20
83.5
 11
272
 21
82
  0
LINE
  8
0
 10
272
 20
82
 11
278.5
 21
82
  0
LINE
  8
0
 10
278.5
 20
82
 11
278.5
 21
78
  0
LINE
  8
0
 10
278.5
 20
78
 11
272
 21
78
  0
LINE
  8
0
 10
272
 20
78
 11
272
 21
76.5
  0
LINE
  8
0
 10
272
 20
76.5
 11
268.5
 21
76.5
  0
LINE
  8
0
 10
268.5
 20
76.5
 11
268.5
 21
78
  0
LINE
  8
0
 10
268.5
 20
78
 11
252
 21
78
  0
LINE
  8
0
 10
252
 20
78
 11
252
 21
70
  0
LINE
  8
0
 10
252
 20
70
 11
246
 21
70
  0
LINE
  8
0
 10
246
 20
70
 11
246
 21
50
  0
LINE
  8
0
 10
246
 20
50
 11
252
 21
50
  0
LINE
  8
0
 10
252
 20
50
 11
252
 21
30
  0
LINE
  8
0
 10
252
 20
30
 11
246
 21
30
  0
LINE
  8
0
 10
246
 20
30
 11
246
 21
10
  0
LINE
  8
0
 10
246
 20
10
 11
252
 21
10
  0
LINE
  8
0
 10
252
 20
10
 11
252
 21
0
  0
LINE
  8
0
 10
252
 20
0
 11
336
 21
0
  0
LINE
  8
0
 10
336
 20
0
 11
336.437
 21
-4.15823
  0
LINE
  8
0
 10
336.437
 20
-4.15823
 11
337.729
 21
-8.13472
  0
LINE
  8
0
 10
337.729
 20
-8.13472
 11
339.82
 21
-11.7557
  0
LINE
  8
0
 10
339.82
 20
-11.7557
 11
342.617
 21
-14.8629
  0
LINE
  8
0
 10
342.617
 20
-14.8629
 11
346
 21
-17.3205
  0
LINE
  8
0
 10
346
 20
-17.3205
 11
349.82
 21
-19.0211
  0
LINE
  8
0
 10
349.82
 20
-19.0211
 11
353.909
 21
-19.8904
  0
LINE
  8
0
 10
353.909
 20
-19.8904
 11
578.091
 21
-19.8904
  0
LINE
  8
0
 10
578.091
 20
-19.8904
 11
582.18
 21
-19.0211
  0
LINE
  8
0
 10
276
 20
384
 11
276
 21
390
  0
LINE
  8
0
 10
276
 20
390
 11
296
 21
390
  0
LINE
  8
0
 10
296
 20
390
 11
296
 21
384
  0
LINE
  8
0
 10
296
 20
384
 11
276
 21
384
  0
LINE
  8
0
 10
316
 20
384
 11
316
 21
390
  0
LINE
  8
0
 10
316
 20
390
 11
336
 21
390
  0
LINE
  8
0
 10
336
 20
390
 11
336
 21
384
  0
LINE
  8
0
 10
336
 20
384
 11
316
 21
384
  0
LINE
  8
0
 10
356
 20
384
 11
356
 21
390
  0
LINE
  8
0
 10
356
 20
390
 11
376
 21
390
  0
LINE
  8
0
 10
376
 20
390
 11
376
 21
384
  0
LINE
  8
0
 10
376
 20
384
 11
356
 21
384
  0
LINE
  8
0
 10
396
 20
384
 11
396
 21
390
  0
LINE
  8
0
 10
396
 20
390
 11
416
 21
390
  0
LINE
  8
0
 10
416
 20
390
 11
416
 21
384
  0
LINE
  8
0
 10
416
 20
384
 11
396
 21
384
  0
LINE
  8
0
 10
436
 20
384
 11
436
 21
390
  0
LINE
  8
0
 10
436
 20
390
 11
456
 21
390
  0
LINE
  8
0
 10
456
 20
390
 11
456
 21
384
  0
LINE
  8
0
 10
456
 20
384
 11
436
 21
384
  0
LINE
  8
0
 10
476
 20
384
 11
476
 21
390
  0
LINE
  8
0
 10
476
 20
390
 11
496
 21
390
  0
LINE
  8
0
 10
496
 20
390
 11
496
 21
384
  0
LINE
  8
0
 10
496
 20
384
 11
476
 21
384
  0
LINE
  8
0
 10
516
 20
384
 11
516
 21
390
  0
LINE
  8
0
 10
516
 20
390
 11
536
 21
390
  0
LINE
  8
0
 10
536
 20
390
 11
536
 21
384
  0
LINE
  8
0
 10
536
 20
384
 11
516
 21
384
  0
LINE
  8
0
 10
556
 20
384
 11
556
 21
390
  0
LINE
  8
0
 10
556
 20
390
 11
576
 21
390
  0
LINE
  8
0
 10
576
 20
390
 11
576
 21
384
  0
LINE
  8
0
 10
576
 20
384
 11
556
 21
384
  0
LINE
  8
0
 10
596
 20
384
 11
596
 21
390
  0
LINE
  8
0
 10
596
 20
390
 11
616
 21
390
  0
LINE
  8
0
 10
616
 20
390
 11
616
 21
384
  0
LINE
  8
0
 10
616
 20
384
 11
596
 21
384
  0
LINE
  8
0
 10
636
 20
384
 11
636
 21
390
  0
LINE
  8
0
 10
636
 20
390
 11
656
 21
390
  0
LINE
  8
0
 10
656
 20
390
 11
656
 21
384
  0
LINE
  8
0
 10
656
 20
384
 11
636
 21
384
  0
LINE
  8
0
 10
344.198
 20
386.132
 11
344.198
 21
387.868
  0
LINE
  8
0
 10
344.198
 20
387.868
 11
345.555
 21
388.95
  0
LINE
  8
0
 10
345.555
 20
388.95
 11
347.247
 21
388.564
  0
LINE
  8
0
 10
347.247
 20
388.564
 11
348
 21
387
  0
LINE
  8
0
 10
348
 20
387
 11
347.247
 21
385.436
  0
LINE
  8
0
 10
347.247
 20
385.436
 11
345.555
 21
385.05
  0
LINE
  8
0
 10
345.555
 20
385.05
 11
344.198
 21
386.132
  0
LINE
  8
0
 10
584.198
 20
386.132
 11
584.198
 21
387.868
  0
LINE
  8
0
 10
584.198
 20
387.868
 11
585.555
 21
388.95
  0
LINE
  8
0
 10
585.555
 20
388.95
 11
587.247
 21
388.564
  0
LINE
  8
0
 10
587.247
 20
388.564
 11
588
 21
387
  0
LINE
  8
0
 10
588
 20
387
 11
587.247
 21
385.436
  0
LINE
  8
0
 10
587.247
 20
385.436
 11
585.555
 21
385.05
  0
LINE
  8
0
 10
585.555
 20
385.05
 11
584.198
 21
386.132
  0
LINE
  8
0
 10
111.18
 20
-19.0211
 11
115
 21
-17.3205
  0
LINE
  8
0
 10
115
 20
-17.3205
 11
118.383
 21
-14.8629
  0
LINE
  8
0
 10
118.383
 20
-14.8629
 11
121.18
 21
-11.7557
  0
LINE
  8
0
 10
121.18
 20
-11.7557
 11
123.271
 21
-8.13472
  0
LINE
  8
0
 10
123.271
 20
-8.13472
 11
124.563
 21
-4.15823
  0
LINE
  8
0
 10
124.563
 20
-4.15823
 11
125
 21
0
  0
LINE
  8
0
 10
125
 20
0
 11
203.38
 21
0
  0
LINE
  8
0
 10
203.38
 20
0
 11
200.05
 21
7.13965
  0
LINE
  8
0
 10
200.05
 20
7.13965
 11
205.488
 21
9.67535
  0
LINE
  8
0
 10
205.488
 20
9.67535
 11
210
 21
0
  0
LINE
  8
0
 10
210
 20
0
 11
220
 21
0
  0
LINE
  8
0
 10
220
 20
0
 11
220
 21
10.7225
  0
LINE
  8
0
 10
220
 20
10.7225
 11
38.4769
 21
400
  0
LINE
  8
0
 10
38.4769
 20
400
 11
-220
 21
400
  0
LINE
  8
0
 10
-220
 20
400
 11
-220
 21
0
  0
LINE
  8
0
 10
-220
 20
0
 11
-125
 21
0
  0
LINE
  8
0
 10
-125
 20
0
 11
-124.563
 21
-4.15823
  0
LINE
  8
0
 10
-124.563
 20
-4.15823
 11
-123.271
 21
-8.13472
  0
LINE
  8
0
 10
-123.271
 20
-8.13472
 11
-121.18
 21
-11.7557
  0
LINE
  8
0
 10
-121.18
 20
-11.7557
 11
-118.383
 21
-14.8629
  0
LINE
  8
0
 10
-118.383
 20
-14.8629
 11
-115
 21
-17.3205
  0
LINE
  8
0
 10
-115
 20
-17.3205
 11
-111.18
 21
-19.0211
  0
LINE
  8
0
 10
-111.18
 20
-19.0211
 11
-107.091
 21
-19.8904
  0
LINE
  8
0
 10
-107.091
 20
-19.8904
 11
107.091
 21
-19.8904
  0
LINE
  8
0
 10
107.091
 20
-19.8904
 11
111.18
 21
-19.0211
  0
LINE
  8
0
 10
18.0391
 20
397.464
 11
23.4769
 21
400
  0
LINE
  8
0
 10
23.4769
 20
400
 11
27.9886
 21
390.325
  0
LINE
  8
0
 10
27.9886
 20
390.325
 11
22.5508
 21
387.789
  0
LINE
  8
0
 10
22.5508
 20
387.789
 11
18.0391
 21
397.464
  0
LINE
  8
0
 10
-123.262
 20
384
 11
-123.262
 21
390
  0
LINE
  8
0
 10
-123.262
 20
390
 11
-103.262
 21
390
  0
LINE
  8
0
 10
-103.262
 20
390
 11
-103.262
 21
384
  0
LINE
  8
0
 10
-103.262
 20
384
 11
-123.262
 21
384
  0
LINE
  8
0
 10
-163.262
 20
384
 11
-163.262
 21
390
  0
LINE
  8
0
 10
-163.262
 20
390
 11
-143.262
 21
390
  0
LINE
  8
0
 10
-143.262
 20
390
 11
-143.262
 21
384
  0
LINE
  8
0
 10
-143.262
 20
384
 11
-163.262
 21
384
  0
LINE
  8
0
 10
-203.262
 20
384
 11
-203.262
 21
390
  0
LINE
  8
0
 10
-203.262
 20
390
 11
-183.262
 21
390
  0
LINE
  8
0
 10
-183.262
 20
390
 11
-183.262
 21
384
  0
LINE
  8
0
 10
-183.262
 20
384
 11
-203.262
 21
384
  0
LINE
  8
0
 10
-83.2615
 20
384
 11
-83.2615
 21
390
  0
LINE
  8
0
 10
-83.2615
 20
390
 11
-63.2615
 21
390
  0
LINE
  8
0
 10
-63.2615
 20
390
 11
-63.2615
 21
384
  0
LINE
  8
0
 10
-63.2615
 20
384
 11
-83.2615
 21
384
  0
LINE
  8
0
 10
-43.2615
 20
384
 11
-43.2615
 21
390
  0
LINE
  8
0
 10
-43.2615
 20
390
 11
-23.2615
 21
390
  0
LINE
  8
0
 10
-23.2615
 20
390
 11
-23.2615
 21
384
  0
LINE
  8
0
 10
-23.2615
 20
384
 11
-43.2615
 21
384
  0
LINE
  8
0
 10
-3.26154
 20
384
 11
-3.26154
 21
390
  0
LINE
  8
0
 10
-3.26154
 20
390
 11
16.7385
 21
390
  0
LINE
  8
0
 10
16.7385
 20
390
 11
16.7385
 21
384
  0
LINE
  8
0
 10
16.7385
 20
384
 11
-3.26154
 21
384
  0
LINE
  8
0
 10
-210
 20
370
 11
-210
 21
390
  0
LINE
  8
0
 10
-210
 20
390
 11
-204
 21
390
  0
LINE
  8
0
 10
-204
 20
390
 11
-204
 21
370
  0
LINE
  8
0
 10
-204
 20
370
 11
-210
 21
370
  0
LINE
  8
0
 10
-55.0635
 20
386.132
 11
-55.0635
 21
387.868
  0
LINE
  8
0
 10
-55.0635
 20
387.868
 11
-53.7066
 21
388.95
  0
LINE
  8
0
 10
-53.7066
 20
388.95
 11
-52.0146
 21
388.564
  0
LINE
  8
0
 10
-52.0146
 20
388.564
 11
-51.2615
 21
387
  0
LINE
  8
0
 10
-51.2615
 20
387
 11
-52.0146
 21
385.436
  0
LINE
  8
0
 10
-52.0146
 20
385.436
 11
-53.7066
 21
385.05
  0
LINE
  8
0
 10
-53.7066
 20
385.05
 11
-55.0635
 21
386.132
  0
LINE
  8
0
 10
-135.063
 20
386.132
 11
-135.063
 21
387.868
  0
LINE
  8
0
 10
-135.063
 20
387.868
 11
-133.707
 21
388.95
  0
LINE
  8
0
 10
-133.707
 20
388.95
 11
-132.015
 21
388.564
  0
LINE
  8
0
 10
-132.015
 20
388.564
 11
-131.262
 21
387
  0
LINE
  8
0
 10
-131.262
 20
387
 11
-132.015
 21
385.436
  0
LINE
  8
0
 10
-132.015
 20
385.436
 11
-133.707
 21
385.05
  0
LINE
  8
0
 10
-133.707
 20
385.05
 11
-135.063
 21
386.132
  0
LINE
  8
0
 10
31.0031
 20
369.663
 11
36.441
 21
372.198
  0
LINE
  8
0
 10
36.441
 20
372.198
 11
44.8934
 21
354.072
  0
LINE
  8
0
 10
44.8934
 20
354.072
 11
39.4555
 21
351.537
  0
LINE
  8
0
 10
39.4555
 20
351.537
 11
31.0031
 21
369.663
  0
LINE
  8
0
 10
-210
 20
330
 11
-210
 21
350
  0
LINE
  8
0
 10
-210
 20
350
 11
-204
 21
350
  0
LINE
  8
0
 10
-204
 20
350
 11
-204
 21
330
  0
LINE
  8
0
 10
-204
 20
330
 11
-210
 21
330
  0
LINE
  8
0
 10
47.9079
 20
333.41
 11
53.3457
 21
335.946
  0
LINE
  8
0
 10
53.3457
 20
335.946
 11
61.7981
 21
317.82
  0
LINE
  8
0
 10
61.7981
 20
317.82
 11
56.3602
 21
315.284
  0
LINE
  8
0
 10
56.3602
 20
315.284
 11
47.9079
 21
333.41
  0
LINE
  8
0
 10
-207.868
 20
318.198
 11
-208.95
 21
319.555
  0
LINE
  8
0
 10
-208.95
 20
319.555
 11
-208.564
 21
321.247
  0
LINE
  8
0
 10
-208.564
 20
321.247
 11
-207
 21
322
  0
LINE
  8
0
 10
-207
 20
322
 11
-205.436
 21
321.247
  0
LINE
  8
0
 10
-205.436
 20
321.247
 11
-205.05
 21
319.555
  0
LINE
  8
0
 10
-205.05
 20
319.555
 11
-206.132
 21
318.198
  0
LINE
  8
0
 10
-206.132
 20
318.198
 11
-207.868
 21
318.198
  0
LINE
  8
0
 10
-210
 20
290
 11
-210
 21
310
  0
LINE
  8
0
 10
-210
 20
310
 11
-204
 21
310
  0
LINE
  8
0
 10
-204
 20
310
 11
-204
 21
290
  0
LINE
  8
0
 10
-204
 20
290
 11
-210
 21
290
  0
LINE
  8
0
 10
61.7263
 20
306.262
 11
61.3612
 21
307.958
  0
LINE
  8
0
 10
61.3612
 20
307.958
 11
62.4601
 21
309.302
  0
LINE
  8
0
 10
62.4601
 20
309.302
 11
64.1955
 21
309.28
  0
LINE
  8
0
 10
64.1955
 20
309.28
 11
65.2606
 21
307.91
  0
LINE
  8
0
 10
65.2606
 20
307.91
 11
64.8534
 21
306.223
  0
LINE
  8
0
 10
64.8534
 20
306.223
 11
63.2804
 21
305.489
  0
LINE
  8
0
 10
63.2804
 20
305.489
 11
61.7263
 21
306.262
  0
LINE
  8
0
 10
64.8126
 20
297.158
 11
70.2505
 21
299.694
  0
LINE
  8
0
 10
70.2505
 20
299.694
 11
78.7028
 21
281.568
  0
LINE
  8
0
 10
78.7028
 20
281.568
 11
73.265
 21
279.032
  0
LINE
  8
0
 10
73.265
 20
279.032
 11
64.8126
 21
297.158
  0
LINE
  8
0
 10
-210
 20
250
 11
-210
 21
270
  0
LINE
  8
0
 10
-210
 20
270
 11
-204
 21
270
  0
LINE
  8
0
 10
-204
 20
270
 11
-204
 21
250
  0
LINE
  8
0
 10
-204
 20
250
 11
-210
 21
250
  0
LINE
  8
0
 10
-81.3957
 20
255.095
 11
-83.0734
 21
255.93
  0
LINE
  8
0
 10
-83.0734
 20
255.93
 11
-84.3361
 21
257.315
  0
LINE
  8
0
 10
-84.3361
 20
257.315
 11
-85.0132
 21
259.063
  0
LINE
  8
0
 10
-85.0132
 20
259.063
 11
-85.0132
 21
260.937
  0
LINE
  8
0
 10
-85.0132
 20
260.937
 11
-84.3361
 21
262.685
  0
LINE
  8
0
 10
-84.3361
 20
262.685
 11
-83.0734
 21
264.07
  0
LINE
  8
0
 10
-83.0734
 20
264.07
 11
-81.3957
 21
264.905
  0
LINE
  8
0
 10
-81.3957
 20
264.905
 11
-79.5294
 21
265.078
  0
LINE
  8
0
 10
-79.5294
 20
265.078
 11
-77.7267
 21
264.565
  0
LINE
  8
0
 10
-77.7267
 20
264.565
 11
-76.231
 21
263.436
  0
LINE
  8
0
 10
-76.231
 20
263.436
 11
-75.2444
 21
261.842
  0
LINE
  8
0
 10
-75.2444
 20
261.842
 11
-74.9
 21
260
  0
LINE
  8
0
 10
-74.9
 20
260
 11
-75.2444
 21
258.158
  0
LINE
  8
0
 10
-75.2444
 20
258.158
 11
-76.231
 21
256.564
  0
LINE
  8
0
 10
-76.231
 20
256.564
 11
-77.7267
 21
255.435
  0
LINE
  8
0
 10
-77.7267
 20
255.435
 11
-79.5294
 21
254.922
  0
LINE
  8
0
 10
-79.5294
 20
254.922
 11
-81.3957
 21
255.095
  0
LINE
  8
0
 10
81.7173
 20
260.906
 11
87.1552
 21
263.442
  0
LINE
  8
0
 10
87.1552
 20
263.442
 11
95.6075
 21
245.315
  0
LINE
  8
0
 10
95.6075
 20
245.315
 11
90.1697
 21
242.78
  0
LINE
  8
0
 10
90.1697
 20
242.78
 11
81.7173
 21
260.906
  0
LINE
  8
0
 10
-210
 20
210
 11
-210
 21
230
  0
LINE
  8
0
 10
-210
 20
230
 11
-204
 21
230
  0
LINE
  8
0
 10
-204
 20
230
 11
-204
 21
210
  0
LINE
  8
0
 10
-204
 20
210
 11
-210
 21
210
  0
LINE
  8
0
 10
98.6221
 20
224.654
 11
104.06
 21
227.189
  0
LINE
  8
0
 10
104.06
 20
227.189
 11
112.512
 21
209.063
  0
LINE
  8
0
 10
112.512
 20
209.063
 11
107.074
 21
206.527
  0
LINE
  8
0
 10
107.074
 20
206.527
 11
98.6221
 21
224.654
  0
LINE
  8
0
 10
115.527
 20
188.401
 11
120.965
 21
190.937
  0
LINE
  8
0
 10
120.965
 20
190.937
 11
129.417
 21
172.811
  0
LINE
  8
0
 10
129.417
 20
172.811
 11
123.979
 21
170.275
  0
LINE
  8
0
 10
123.979
 20
170.275
 11
115.527
 21
188.401
  0
LINE
  8
0
 10
-210
 20
170
 11
-210
 21
190
  0
LINE
  8
0
 10
-210
 20
190
 11
-204
 21
190
  0
LINE
  8
0
 10
-204
 20
190
 11
-204
 21
170
  0
LINE
  8
0
 10
-204
 20
170
 11
-210
 21
170
  0
LINE
  8
0
 10
132.432
 20
152.149
 11
137.869
 21
154.685
  0
LINE
  8
0
 10
137.869
 20
154.685
 11
146.322
 21
136.558
  0
LINE
  8
0
 10
146.322
 20
136.558
 11
140.884
 21
134.023
  0
LINE
  8
0
 10
140.884
 20
134.023
 11
132.432
 21
152.149
  0
LINE
  8
0
 10
-210
 20
130
 11
-210
 21
150
  0
LINE
  8
0
 10
-210
 20
150
 11
-204
 21
150
  0
LINE
  8
0
 10
-204
 20
150
 11
-204
 21
130
  0
LINE
  8
0
 10
-204
 20
130
 11
-210
 21
130
  0
LINE
  8
0
 10
149.336
 20
115.897
 11
154.774
 21
118.432
  0
LINE
  8
0
 10
154.774
 20
118.432
 11
163.226
 21
100.306
  0
LINE
  8
0
 10
163.226
 20
100.306
 11
157.789
 21
97.7704
  0
LINE
  8
0
 10
157.789
 20
97.7704
 11
149.336
 21
115.897
  0
LINE
  8
0
 10
-210
 20
90
 11
-210
 21
110
  0
LINE
  8
0
 10
-210
 20
110
 11
-204
 21
110
  0
LINE
  8
0
 10
-204
 20
110
 11
-204
 21
90
  0
LINE
  8
0
 10
-204
 20
90
 11
-210
 21
90
  0
LINE
  8
0
 10
163.155
 20
88.7478
 11
162.79
 21
90.4445
  0
LINE
  8
0
 10
162.79
 20
90.4445
 11
163.888
 21
91.7878
  0
LINE
  8
0
 10
163.888
 20
91.7878
 11
165.624
 21
91.7662
  0
LINE
  8
0
 10
165.624
 20
91.7662
 11
166.689
 21
90.3959
  0
LINE
  8
0
 10
166.689
 20
90.3959
 11
166.282
 21
88.7088
  0
LINE
  8
0
 10
166.282
 20
88.7088
 11
164.709
 21
87.9754
  0
LINE
  8
0
 10
164.709
 20
87.9754
 11
163.155
 21
88.7478
  0
LINE
  8
0
 10
166.241
 20
79.6443
 11
171.679
 21
82.18
  0
LINE
  8
0
 10
171.679
 20
82.18
 11
180.131
 21
64.0538
  0
LINE
  8
0
 10
180.131
 20
64.0538
 11
174.693
 21
61.5181
  0
LINE
  8
0
 10
174.693
 20
61.5181
 11
166.241
 21
79.6443
  0
LINE
  8
0
 10
-207.868
 20
78.1981
 11
-208.95
 21
79.5549
  0
LINE
  8
0
 10
-208.95
 20
79.5549
 11
-208.564
 21
81.247
  0
LINE
  8
0
 10
-208.564
 20
81.247
 11
-207
 21
82
  0
LINE
  8
0
 10
-207
 20
82
 11
-205.436
 21
81.247
  0
LINE
  8
0
 10
-205.436
 20
81.247
 11
-205.05
 21
79.5549
  0
LINE
  8
0
 10
-205.05
 20
79.5549
 11
-206.132
 21
78.1981
  0
LINE
  8
0
 10
-206.132
 20
78.1981
 11
-207.868
 21
78.1981
  0
LINE
  8
0
 10
-210
 20
50
 11
-210
 21
70
  0
LINE
  8
0
 10
-210
 20
70
 11
-204
 21
70
  0
LINE
  8
0
 10
-204
 20
70
 11
-204
 21
50
  0
LINE
  8
0
 10
-204
 20
50
 11
-210
 21
50
  0
LINE
  8
0
 10
183.146
 20
43.392
 11
188.584
 21
45.9277
  0
LINE
  8
0
 10
188.584
 20
45.9277
 11
197.036
 21
27.8015
  0
LINE
  8
0
 10
197.036
 20
27.8015
 11
191.598
 21
25.2658
  0
LINE
  8
0
 10
191.598
 20
25.2658
 11
183.146
 21
43.392
  0
LINE
  8
0
 10
-210
 20
10
 11
-210
 21
30
  0
LINE
  8
0
 10
-210
 20
30
 11
-204
 21
30
  0
LINE
  8
0
 10
-204
 20
30
 11
-204
 21
10
  0
LINE
  8
0
 10
-204
 20
10
 11
-210
 21
10
  0
ENDSEC
  0
SECTION
  2
OBJECTS
  0
DICTIONARY
  0
ENDSEC
  0
EOF
